<svg xmlns="http://www.w3.org/2000/svg" viewBox="0 0 100 100" aria-hidden="true" stroke-linecap="round" stroke-linejoin="round">
<path d="M62 46a16 16 0 1 0 32 0a16 16 0 1 0-32 0Z" fill="rgba(138,143,152,0.22)"><animate attributeName="opacity" values="0;0;1" keyTimes="0;0.759;1" dur="1.08s" begin="0s" fill="freeze"/></path>
<path d="M38.5 69.5C33 71 27.5 74.5 24.5 79C22.6 82 22.2 84.5 22.2 86.5C28.5 91.5 38 93.6 47.5 93.6C57 93.6 66 91.5 72.8 86.5C72.8 84.5 72.4 82 70.5 79C67.5 74.5 62 71 56.5 69.5C51.5 72.8 43.5 72.8 38.5 69.5Z" fill="#4b3f36"><animate attributeName="opacity" values="0;0;1" keyTimes="0;0.674;1" dur="0.86s" begin="0s" fill="freeze"/></path>
<path d="M43 54.5L43 64C45.5 66 49.5 66 52 64L52 54.5C49.5 57.5 45.5 57.5 43 54.5Z" fill="#eec49c"><animate attributeName="opacity" values="0;0;1" keyTimes="0;0.633;1" dur="0.6s" begin="0s" fill="freeze"/></path>
<path d="M43 55C45.5 57.8 49.5 57.8 52 55L52 58.5C49.5 60.8 45.5 60.8 43 58.5Z" fill="#dfa878"><animate attributeName="opacity" values="0;0;1" keyTimes="0;0.714;1" dur="0.7s" begin="0s" fill="freeze"/></path>
<path d="M40.5 63C43.5 66.3 51.5 66.3 54.5 63L56.5 69.5C51.5 72.8 43.5 72.8 38.5 69.5Z" fill="#f4e9d8"><animate attributeName="opacity" values="0;0;1" keyTimes="0;0.694;1" dur="0.72s" begin="0s" fill="freeze"/></path>
<path d="M35.2 34C35.2 26.8 40.6 23.6 47.5 23.6C54.4 23.6 60 27 60 34.2C60 43.5 58 50.8 54.2 54.8C50.4 58.8 44.6 58.7 40.9 54.6C37.2 50.4 35.2 43 35.2 34Z" fill="#eec49c"><animate attributeName="opacity" values="0;0;1" keyTimes="0;0.548;1" dur="0.62s" begin="0s" fill="freeze"/></path>
<path d="M38.7 47.2a2.3 1.9 0 1 0 4.6 0a2.3 1.9 0 1 0-4.6 0ZM51.7 47.2a2.3 1.9 0 1 0 4.6 0a2.3 1.9 0 1 0-4.6 0Z" fill="rgba(197,116,92,0.26)"><animate attributeName="opacity" values="0;0;1" keyTimes="0;0.733;1" dur="0.75s" begin="0s" fill="freeze"/></path>
<path d="M43.9 52.1C45.3 51.2 46.9 51.4 47.6 52C48.3 51.4 49.9 51.2 51.3 52.1C50 53.7 45.3 53.7 43.9 52.1Z" fill="#b56a68"><animate attributeName="opacity" values="0;0;1" keyTimes="0;0.652;1" dur="0.46s" begin="0s" fill="freeze"/></path>
<path d="M40.9 42.6a1.8 1.5 0 1 0 3.6 0a1.8 1.5 0 1 0-3.6 0ZM51.1 42.6a1.8 1.5 0 1 0 3.6 0a1.8 1.5 0 1 0-3.6 0Z" fill="#2b2233"><animate attributeName="opacity" values="0;0;1" keyTimes="0;0.571;1" dur="0.42s" begin="0s" fill="freeze"/></path>
<path d="M35.4 33C33.6 37 33.7 45 36.2 50.5C37.5 53 40 52.8 41 49.5C39.8 44.5 39.6 39 39.8 34.5C38.2 33.2 36.5 32.6 35.4 33ZM59.6 33C61.4 37 61.3 45 58.8 50.5C57.5 53 55 52.8 54 49.5C55.2 44.5 55.4 39 55.2 34.5C56.8 33.2 58.5 32.6 59.6 33Z" fill="#2e2622"><animate attributeName="opacity" values="0;0;1" keyTimes="0;0.517;1" dur="0.58s" begin="0s" fill="freeze"/></path>
<path d="M38.5 30.5L38.5 13.5C38.5 10.8 61 10.8 61 13.5L61 30.5Z" fill="#3a332e"><animate attributeName="opacity" values="0;0;1" keyTimes="0;0.517;1" dur="0.58s" begin="0s" fill="freeze"/></path>
<path d="M38.5 29L38.5 23.5L61 23.5L61 29Z" fill="#524a41"><animate attributeName="opacity" values="0;0;1" keyTimes="0;0.694;1" dur="0.72s" begin="0s" fill="freeze"/></path>
<path d="M30 30.5C30 27.8 69.5 27.8 69.5 30.5C69.5 33.2 30 33.2 30 30.5Z" fill="#3a332e"><animate attributeName="opacity" values="0;0;1" keyTimes="0;0.607;1" dur="0.56s" begin="0s" fill="freeze"/></path>
<path d="M47.5 66L41 62.5L41 69.5ZM47.5 66L54 62.5L54 69.5ZM45.9 63.9L49.1 63.9L49.1 68.1L45.9 68.1Z" fill="#33302b"><animate attributeName="opacity" values="0;0;1" keyTimes="0;0.805;1" dur="0.82s" begin="0s" fill="freeze"/></path>
<path d="M73 34a5 7 0 1 0 10 0a5 7 0 1 0-10 0ZM78 29.5a2.6 4.5 0 1 1 0 9a2.6 4.5 0 1 1 0-9Z" fill="#8a8f98"><animate attributeName="opacity" values="0;0;1" keyTimes="0;0.787;1" dur="0.94s" begin="0s" fill="freeze"/></path>
<path d="M73 46a5 7 0 1 0 10 0a5 7 0 1 0-10 0ZM78 41.5a2.6 4.5 0 1 1 0 9a2.6 4.5 0 1 1 0-9Z" fill="#9aa0a8"><animate attributeName="opacity" values="0;0;1" keyTimes="0;0.85;1" dur="1s" begin="0s" fill="freeze"/></path>
<path d="M73 58a5 7 0 1 0 10 0a5 7 0 1 0-10 0ZM78 53.5a2.6 4.5 0 1 1 0 9a2.6 4.5 0 1 1 0-9Z" fill="#8a8f98"><animate attributeName="opacity" values="0;0;1" keyTimes="0;0.778;1" dur="0.9s" begin="0s" fill="freeze"/></path>
<path d="M35.4 33C33.6 37 33.7 45 36.2 50.5C37.5 53 40 52.8 41 49.5" fill="none" stroke="#2b2233" stroke-width="3.5" pathLength="1" stroke-dasharray="1"><animate attributeName="stroke-dashoffset" values="1.01;1.01;0" keyTimes="0;0.238;1" calcMode="spline" keySplines="0 0 1 1;.4 0 .2 1" dur="0.42s" begin="0s" fill="freeze"/></path>
<path d="M59.6 33C61.4 37 61.3 45 58.8 50.5C57.5 53 55 52.8 54 49.5" fill="none" stroke="#2b2233" stroke-width="3.5" pathLength="1" stroke-dasharray="1"><animate attributeName="stroke-dashoffset" values="1.01;1.01;0" keyTimes="0;0.28;1" calcMode="spline" keySplines="0 0 1 1;.4 0 .2 1" dur="0.44s" begin="0s" fill="freeze"/></path>
<path d="M40.4 39.2C41.6 38.2 43.6 38.1 44.8 38.9" fill="none" stroke="#2b2233" stroke-width="2.5" pathLength="1" stroke-dasharray="1"><animate attributeName="stroke-dashoffset" values="1.01;1.01;0" keyTimes="0;0.467;1" calcMode="spline" keySplines="0 0 1 1;.4 0 .2 1" dur="0.3s" begin="0s" fill="freeze"/></path>
<path d="M51 38.9C52.2 38.1 54.2 38.2 55.4 39.2" fill="none" stroke="#2b2233" stroke-width="2.5" pathLength="1" stroke-dasharray="1"><animate attributeName="stroke-dashoffset" values="1.01;1.01;0" keyTimes="0;0.5;1" calcMode="spline" keySplines="0 0 1 1;.4 0 .2 1" dur="0.32s" begin="0s" fill="freeze"/></path>
<path d="M47.4 43C47.2 45.4 46.9 47.2 46.3 48.4C47 49.1 48.2 49.1 48.9 48.5" fill="none" stroke="#2b2233" stroke-width="2.5" pathLength="1" stroke-dasharray="1"><animate attributeName="stroke-dashoffset" values="1.01;1.01;0" keyTimes="0;0.529;1" calcMode="spline" keySplines="0 0 1 1;.4 0 .2 1" dur="0.34s" begin="0s" fill="freeze"/></path>
<path d="M38.5 30.5L38.5 13.5C38.5 10.8 61 10.8 61 13.5L61 30.5" fill="none" stroke="#2b2233" stroke-width="3.5" pathLength="1" stroke-dasharray="1"><animate attributeName="stroke-dashoffset" values="1.01;1.01;0" keyTimes="0;0.238;1" calcMode="spline" keySplines="0 0 1 1;.4 0 .2 1" dur="0.42s" begin="0s" fill="freeze"/></path>
<path d="M30 30.5C30 27.8 69.5 27.8 69.5 30.5C69.5 33.2 30 33.2 30 30.5Z" fill="none" stroke="#2b2233" stroke-width="2.5" pathLength="1" stroke-dasharray="1"><animate attributeName="stroke-dashoffset" values="1.01;1.01;0" keyTimes="0;0.667;1" calcMode="spline" keySplines="0 0 1 1;.4 0 .2 1" dur="0.48s" begin="0s" fill="freeze"/></path>
<path d="M43 56L43 63.2M52 56L52 63.2" fill="none" stroke="#2b2233" stroke-width="2.5" pathLength="1" stroke-dasharray="1"><animate attributeName="stroke-dashoffset" values="1.01;1.01;0" keyTimes="0;0.769;1" calcMode="spline" keySplines="0 0 1 1;.4 0 .2 1" dur="0.52s" begin="0s" fill="freeze"/></path>
<path d="M40.5 63C43.5 66.3 51.5 66.3 54.5 63" fill="none" stroke="#2b2233" stroke-width="2.5" pathLength="1" stroke-dasharray="1"><animate attributeName="stroke-dashoffset" values="1.01;1.01;0" keyTimes="0;0.759;1" calcMode="spline" keySplines="0 0 1 1;.4 0 .2 1" dur="0.58s" begin="0s" fill="freeze"/></path>
<path d="M38.5 69.5C43.5 72.8 51.5 72.8 56.5 69.5" fill="none" stroke="#2b2233" stroke-width="2.5" pathLength="1" stroke-dasharray="1"><animate attributeName="stroke-dashoffset" values="1.01;1.01;0" keyTimes="0;0.774;1" calcMode="spline" keySplines="0 0 1 1;.4 0 .2 1" dur="0.62s" begin="0s" fill="freeze"/></path>
<path d="M38.5 69.5C33 71 27.5 74.5 24.5 79C22.6 82 22.2 84.5 22.2 86.5" fill="none" stroke="#2b2233" stroke-width="3.5" pathLength="1" stroke-dasharray="1"><animate attributeName="stroke-dashoffset" values="1.01;1.01;0" keyTimes="0;0.714;1" calcMode="spline" keySplines="0 0 1 1;.4 0 .2 1" dur="0.7s" begin="0s" fill="freeze"/></path>
<path d="M56.5 69.5C62 71 67.5 74.5 70.5 79C72.4 82 72.8 84.5 72.8 86.5" fill="none" stroke="#2b2233" stroke-width="3.5" pathLength="1" stroke-dasharray="1"><animate attributeName="stroke-dashoffset" values="1.01;1.01;0" keyTimes="0;0.73;1" calcMode="spline" keySplines="0 0 1 1;.4 0 .2 1" dur="0.74s" begin="0s" fill="freeze"/></path>
<path d="M78 27a5 7 0 1 0 0 14a5 7 0 1 0 0-14M78 39a5 7 0 1 0 0 14a5 7 0 1 0 0-14M78 51a5 7 0 1 0 0 14a5 7 0 1 0 0-14" fill="none" stroke="#2b2233" stroke-width="2.5" pathLength="1" stroke-dasharray="1"><animate attributeName="stroke-dashoffset" values="1.01;1.01;0" keyTimes="0;0.725;1" calcMode="spline" keySplines="0 0 1 1;.4 0 .2 1" dur="0.8s" begin="0s" fill="freeze"/></path>
<path d="M85 30.5L89 28.5M86 46L90 46M85 61.5L89 63.5" fill="none" stroke="#8a8f98" stroke-width="2.5" pathLength="1" stroke-dasharray="1"><animate attributeName="stroke-dashoffset" values="1.01;1.01;0" keyTimes="0;0.78;1" calcMode="spline" keySplines="0 0 1 1;.4 0 .2 1" dur="1s" begin="0s" fill="freeze"/></path>
</svg>
