<svg xmlns="http://www.w3.org/2000/svg" viewBox="0 0 100 100" aria-hidden="true" stroke-linecap="round" stroke-linejoin="round">
<path d="M38.5 69.5C33 71 27.5 74.5 24.5 79C22.6 82 22.2 84.5 22.2 86.5C28.5 91.5 38 93.6 47.5 93.6C57 93.6 66 91.5 72.8 86.5C72.8 84.5 72.4 82 70.5 79C67.5 74.5 62 71 56.5 69.5C51.5 72.8 43.5 72.8 38.5 69.5Z" fill="#2c3e6b"><animate attributeName="opacity" values="0;0;1" keyTimes="0;0.674;1" dur="0.86s" begin="0s" fill="freeze"/></path>
<path d="M43 54.5L43 64C45.5 66 49.5 66 52 64L52 54.5C49.5 57.5 45.5 57.5 43 54.5Z" fill="#eec49c"><animate attributeName="opacity" values="0;0;1" keyTimes="0;0.633;1" dur="0.6s" begin="0s" fill="freeze"/></path>
<path d="M43 55C45.5 57.8 49.5 57.8 52 55L52 58.5C49.5 60.8 45.5 60.8 43 58.5Z" fill="#dfa878"><animate attributeName="opacity" values="0;0;1" keyTimes="0;0.714;1" dur="0.7s" begin="0s" fill="freeze"/></path>
<path d="M41 57L54 57L55 64C51 67 44 67 40 64Z" fill="#a4403a"><animate attributeName="opacity" values="0;0;1" keyTimes="0;0.694;1" dur="0.72s" begin="0s" fill="freeze"/></path>
<path d="M43.5 64L47.5 82L51.5 64C49 66 46 66 43.5 64Z" fill="#f4e9d8"><animate attributeName="opacity" values="0;0;1" keyTimes="0;0.72;1" dur="0.78s" begin="0s" fill="freeze"/></path>
<path d="M35.2 34C35.2 26.8 40.6 23.6 47.5 23.6C54.4 23.6 60 27 60 34.2C60 43.5 58 50.8 54.2 54.8C50.4 58.8 44.6 58.7 40.9 54.6C37.2 50.4 35.2 43 35.2 34Z" fill="#eec49c"><animate attributeName="opacity" values="0;0;1" keyTimes="0;0.548;1" dur="0.62s" begin="0s" fill="freeze"/></path>
<path d="M38.7 47.2a2.3 1.9 0 1 0 4.6 0a2.3 1.9 0 1 0-4.6 0ZM51.7 47.2a2.3 1.9 0 1 0 4.6 0a2.3 1.9 0 1 0-4.6 0Z" fill="rgba(197,116,92,0.26)"><animate attributeName="opacity" values="0;0;1" keyTimes="0;0.733;1" dur="0.75s" begin="0s" fill="freeze"/></path>
<path d="M43.9 52.5C45.3 51.9 46.9 52 47.6 52.5C48.3 52 49.9 51.9 51.3 52.5C50 53.8 45.3 53.8 43.9 52.5Z" fill="#b56a68"><animate attributeName="opacity" values="0;0;1" keyTimes="0;0.652;1" dur="0.46s" begin="0s" fill="freeze"/></path>
<path d="M40.9 42.6a1.8 1.5 0 1 0 3.6 0a1.8 1.5 0 1 0-3.6 0ZM51.1 42.6a1.8 1.5 0 1 0 3.6 0a1.8 1.5 0 1 0-3.6 0Z" fill="#2b2233"><animate attributeName="opacity" values="0;0;1" keyTimes="0;0.571;1" dur="0.42s" begin="0s" fill="freeze"/></path>
<path d="M34 27C32 31 32 37.5 34 40.5C35.2 37.5 35.5 32 37 29C36 27.8 35 27 34 27ZM66 27C68 31 68 37.5 66 40.5C64.8 37.5 64.5 32 63 29C64 27.8 65 27 66 27Z" fill="#2a2622"><animate attributeName="opacity" values="0;0;1" keyTimes="0;0.517;1" dur="0.58s" begin="0s" fill="freeze"/></path>
<path d="M18 21C22 14 31 11 39 11C44 11 46.5 13 50 13C53.5 13 56 11 61 11C69 11 78 14 82 21C74 25 60 26.5 50 26.5C40 26.5 26 25 18 21Z" fill="#26232a"><animate attributeName="opacity" values="0;0;1" keyTimes="0;0.517;1" dur="0.58s" begin="0s" fill="freeze"/></path>
<path d="M20 22C30 25.5 42 27 50 27C58 27 70 25.5 80 22C74 24 62 25 50 25C38 25 26 24 20 22Z" fill="#3a3640"><animate attributeName="opacity" values="0;0;1" keyTimes="0;0.607;1" dur="0.56s" begin="0s" fill="freeze"/></path>
<path d="M65 17.5a3 3 0 1 0 6 0a3 3 0 1 0-6 0Z" fill="#c9403a"><animate attributeName="opacity" values="0;0;1" keyTimes="0;0.787;1" dur="0.9s" begin="0s" fill="freeze"/></path>
<path d="M66 17.5a2 2 0 1 0 4 0a2 2 0 1 0-4 0Z" fill="#f4e9d8"><animate attributeName="opacity" values="0;0;1" keyTimes="0;0.82;1" dur="0.94s" begin="0s" fill="freeze"/></path>
<path d="M67 17.5a1 1 0 1 0 2 0a1 1 0 1 0-2 0Z" fill="#3b5ba5"><animate attributeName="opacity" values="0;0;1" keyTimes="0;0.85;1" dur="1s" begin="0s" fill="freeze"/></path>
<path d="M25 73C25 71 36 71 36 73L36 76C36 78.5 25 78.5 25 76Z" fill="#d4a437"><animate attributeName="opacity" values="0;0;1" keyTimes="0;0.787;1" dur="0.94s" begin="0s" fill="freeze"/></path>
<path d="M59 73C59 71 70 71 70 73L70 76C70 78.5 59 78.5 59 76Z" fill="#d4a437"><animate attributeName="opacity" values="0;0;1" keyTimes="0;0.778;1" dur="0.9s" begin="0s" fill="freeze"/></path>
<path d="M46 69.5a1.5 1.5 0 1 0 3 0a1.5 1.5 0 1 0-3 0ZM46 76a1.5 1.5 0 1 0 3 0a1.5 1.5 0 1 0-3 0Z" fill="#d4a437"><animate attributeName="opacity" values="0;0;1" keyTimes="0;0.805;1" dur="0.82s" begin="0s" fill="freeze"/></path>
<path d="M35.4 33C34.8 40.5 36.2 48.8 40.9 54.6C44.4 58.6 50.4 58.7 54.2 54.8C58.4 50 59.8 41 59.6 33.5" fill="none" stroke="#2b2233" stroke-width="3.5" pathLength="1" stroke-dasharray="1"><animate attributeName="stroke-dashoffset" values="1.01;0" keyTimes="0;1" calcMode="spline" keySplines=".4 0 .2 1" dur="0.24s" begin="0s" fill="freeze"/></path>
<path d="M40.2 39.4C41.5 38.5 43.5 38.5 44.8 39.3" fill="none" stroke="#2b2233" stroke-width="2.5" pathLength="1" stroke-dasharray="1"><animate attributeName="stroke-dashoffset" values="1.01;1.01;0" keyTimes="0;0.467;1" calcMode="spline" keySplines="0 0 1 1;.4 0 .2 1" dur="0.3s" begin="0s" fill="freeze"/></path>
<path d="M51 39.3C52.3 38.5 54.3 38.5 55.6 39.4" fill="none" stroke="#2b2233" stroke-width="2.5" pathLength="1" stroke-dasharray="1"><animate attributeName="stroke-dashoffset" values="1.01;1.01;0" keyTimes="0;0.5;1" calcMode="spline" keySplines="0 0 1 1;.4 0 .2 1" dur="0.32s" begin="0s" fill="freeze"/></path>
<path d="M47.4 43C47.2 45.4 46.9 47.2 46.3 48.4C47 49.1 48.2 49.1 48.9 48.5" fill="none" stroke="#2b2233" stroke-width="2.5" pathLength="1" stroke-dasharray="1"><animate attributeName="stroke-dashoffset" values="1.01;1.01;0" keyTimes="0;0.529;1" calcMode="spline" keySplines="0 0 1 1;.4 0 .2 1" dur="0.34s" begin="0s" fill="freeze"/></path>
<path d="M18 21C22 14 31 11 39 11C44 11 46.5 13 50 13C53.5 13 56 11 61 11C69 11 78 14 82 21C74 25 60 26.5 50 26.5C40 26.5 26 25 18 21Z" fill="none" stroke="#2b2233" stroke-width="3.5" pathLength="1" stroke-dasharray="1"><animate attributeName="stroke-dashoffset" values="1.01;1.01;0" keyTimes="0;0.238;1" calcMode="spline" keySplines="0 0 1 1;.4 0 .2 1" dur="0.44s" begin="0s" fill="freeze"/></path>
<path d="M43 56L43 63.2M52 56L52 63.2" fill="none" stroke="#2b2233" stroke-width="2.5" pathLength="1" stroke-dasharray="1"><animate attributeName="stroke-dashoffset" values="1.01;1.01;0" keyTimes="0;0.769;1" calcMode="spline" keySplines="0 0 1 1;.4 0 .2 1" dur="0.52s" begin="0s" fill="freeze"/></path>
<path d="M41 57L54 57L55 64C51 67 44 67 40 64Z" fill="none" stroke="#2b2233" stroke-width="2.5" pathLength="1" stroke-dasharray="1"><animate attributeName="stroke-dashoffset" values="1.01;1.01;0" keyTimes="0;0.72;1" calcMode="spline" keySplines="0 0 1 1;.4 0 .2 1" dur="0.6s" begin="0s" fill="freeze"/></path>
<path d="M43.5 64L47.5 82L51.5 64" fill="none" stroke="#2b2233" stroke-width="2.5" pathLength="1" stroke-dasharray="1"><animate attributeName="stroke-dashoffset" values="1.01;1.01;0" keyTimes="0;0.759;1" calcMode="spline" keySplines="0 0 1 1;.4 0 .2 1" dur="0.66s" begin="0s" fill="freeze"/></path>
<path d="M38.5 69.5C33 71 27.5 74.5 24.5 79C22.6 82 22.2 84.5 22.2 86.5" fill="none" stroke="#2b2233" stroke-width="3.5" pathLength="1" stroke-dasharray="1"><animate attributeName="stroke-dashoffset" values="1.01;1.01;0" keyTimes="0;0.714;1" calcMode="spline" keySplines="0 0 1 1;.4 0 .2 1" dur="0.7s" begin="0s" fill="freeze"/></path>
<path d="M56.5 69.5C62 71 67.5 74.5 70.5 79C72.4 82 72.8 84.5 72.8 86.5" fill="none" stroke="#2b2233" stroke-width="3.5" pathLength="1" stroke-dasharray="1"><animate attributeName="stroke-dashoffset" values="1.01;1.01;0" keyTimes="0;0.73;1" calcMode="spline" keySplines="0 0 1 1;.4 0 .2 1" dur="0.74s" begin="0s" fill="freeze"/></path>
<path d="M28 76.5L27.7 80.5M31 77L30.7 81M34 76.5L33.7 80.5M61 76.5L61.3 80.5M64 77L64.3 81M67 76.5L67.3 80.5" fill="none" stroke="#d4a437" stroke-width="2.5" pathLength="1" stroke-dasharray="1"><animate attributeName="stroke-dashoffset" values="1.01;1.01;0" keyTimes="0;0.8;1" calcMode="spline" keySplines="0 0 1 1;.4 0 .2 1" dur="0.9s" begin="0s" fill="freeze"/></path>
</svg>
