<svg xmlns="http://www.w3.org/2000/svg" viewBox="0 0 100 100" aria-hidden="true" stroke-linecap="round" stroke-linejoin="round">
<path d="M38.5 69.5C33 71 27.5 74.5 24.5 79C22.6 82 22.2 84.5 22.2 86.5C28.5 91.5 38 93.6 47.5 93.6C57 93.6 66 91.5 72.8 86.5C72.8 84.5 72.4 82 70.5 79C67.5 74.5 62 71 56.5 69.5C51.5 72.8 43.5 72.8 38.5 69.5Z" fill="#1c2a44"><animate attributeName="opacity" values="0;0;1" keyTimes="0;0.674;1" dur="0.86s" begin="0s" fill="freeze"/></path>
<path d="M43 54.5L43 64C45.5 66 49.5 66 52 64L52 54.5C49.5 57.5 45.5 57.5 43 54.5Z" fill="#eec49c"><animate attributeName="opacity" values="0;0;1" keyTimes="0;0.633;1" dur="0.6s" begin="0s" fill="freeze"/></path>
<path d="M43 55C45.5 57.8 49.5 57.8 52 55L52 58.5C49.5 60.8 45.5 60.8 43 58.5Z" fill="#dfa878"><animate attributeName="opacity" values="0;0;1" keyTimes="0;0.714;1" dur="0.7s" begin="0s" fill="freeze"/></path>
<path d="M41 63C44 66 51 66 54 63L56 71C51.5 74 43.5 74 39 71Z" fill="#f4e9d8"><animate attributeName="opacity" values="0;0;1" keyTimes="0;0.694;1" dur="0.72s" begin="0s" fill="freeze"/></path>
<path d="M46 64.5L49 64.5L49.3 67.5L47.5 75L46.7 67.5Z" fill="#2b2233"><animate attributeName="opacity" values="0;0;1" keyTimes="0;0.72;1" dur="0.78s" begin="0s" fill="freeze"/></path>
<path d="M34.5 30C33 34 33 41 34.5 45C35.2 46.8 37 46.5 37 44.5C36.2 40 36.2 35 37 31C36.3 30 35.3 29.5 34.5 30ZM60.5 30C62 34 62 41 60.5 45C59.8 46.8 58 46.5 58 44.5C58.8 40 58.8 35 58 31C58.7 30 59.7 29.5 60.5 30Z" fill="#b8b3ac"><animate attributeName="opacity" values="0;0;1" keyTimes="0;0.5;1" dur="0.56s" begin="0s" fill="freeze"/></path>
<path d="M35.2 34C35.2 26.8 40.6 23.6 47.5 23.6C54.4 23.6 60 27 60 34.2C60 43.5 58 50.8 54.2 54.8C50.4 58.8 44.6 58.7 40.9 54.6C37.2 50.4 35.2 43 35.2 34Z" fill="#eec49c"><animate attributeName="opacity" values="0;0;1" keyTimes="0;0.548;1" dur="0.62s" begin="0s" fill="freeze"/></path>
<path d="M38.7 47.2a2.3 1.9 0 1 0 4.6 0a2.3 1.9 0 1 0-4.6 0ZM51.7 47.2a2.3 1.9 0 1 0 4.6 0a2.3 1.9 0 1 0-4.6 0Z" fill="rgba(197,116,92,0.26)"><animate attributeName="opacity" values="0;0;1" keyTimes="0;0.733;1" dur="0.75s" begin="0s" fill="freeze"/></path>
<path d="M43.9 52.1C45.3 51.2 46.9 51.4 47.6 52C48.3 51.4 49.9 51.2 51.3 52.1C50 53.7 45.3 53.7 43.9 52.1Z" fill="#b56a68"><animate attributeName="opacity" values="0;0;1" keyTimes="0;0.652;1" dur="0.46s" begin="0s" fill="freeze"/></path>
<path d="M40.9 42.6a1.8 1.5 0 1 0 3.6 0a1.8 1.5 0 1 0-3.6 0ZM51.1 42.6a1.8 1.5 0 1 0 3.6 0a1.8 1.5 0 1 0-3.6 0Z" fill="#2b2233"><animate attributeName="opacity" values="0;0;1" keyTimes="0;0.571;1" dur="0.42s" begin="0s" fill="freeze"/></path>
<path d="M31 26.5C31 18 37.5 12.5 47.5 12.5C57.5 12.5 67 18 67 26.5C58 24.5 41 24.5 31 26.5Z" fill="#f4e9d8"><animate attributeName="opacity" values="0;0;1" keyTimes="0;0.517;1" dur="0.58s" begin="0s" fill="freeze"/></path>
<path d="M31 26C40.5 24.2 58.5 24.2 67 26L66.3 30C57.5 28.3 41.5 28.3 31.7 30Z" fill="#1c2a44"><animate attributeName="opacity" values="0;0;1" keyTimes="0;0.6;1" dur="0.62s" begin="0s" fill="freeze"/></path>
<path d="M31.7 29.5C41 31 57 31 66.3 29.5C63.5 33 57 34.5 47.5 34.5C38 34.5 34.5 33 31.7 29.5Z" fill="#2b2233"><animate attributeName="opacity" values="0;0;1" keyTimes="0;0.62;1" dur="0.64s" begin="0s" fill="freeze"/></path>
<path d="M45.9 27a1.6 1.6 0 1 0 3.2 0a1.6 1.6 0 1 0-3.2 0Z" fill="#d4a437"><animate attributeName="opacity" values="0;0;1" keyTimes="0;0.72;1" dur="0.72s" begin="0s" fill="freeze"/></path>
<path d="M78.5 41C74 38 70 37.5 68.5 39.5C69.5 42 74 42.5 78.5 41.5ZM79.5 41C84 38 88 37.5 89.5 39.5C88.5 42 84 42.5 79.5 41.5ZM78.5 43C76 44 74 45.5 74.5 47C76 47.5 78 46 78.7 44ZM79.5 43C82 44 84 45.5 83.5 47C82 47.5 80 46 79.3 44Z" fill="#f4e9d8"><animate attributeName="opacity" values="0;0;1" keyTimes="0;0.787;1" dur="0.94s" begin="0s" fill="freeze"/></path>
<path d="M78.3 39.5a0.7 2.5 0 1 0 1.4 0a0.7 2.5 0 1 0-1.4 0Z" fill="#2b2233"><animate attributeName="opacity" values="0;0;1" keyTimes="0;0.8;1" dur="0.9s" begin="0s" fill="freeze"/></path>
<path d="M35.4 33C34.8 40.5 36.2 48.8 40.9 54.6C44.4 58.6 50.4 58.7 54.2 54.8C58.4 50 59.8 41 59.6 33.5" fill="none" stroke="#2b2233" stroke-width="3.5" pathLength="1" stroke-dasharray="1"><animate attributeName="stroke-dashoffset" values="1.01;0" keyTimes="0;1" calcMode="spline" keySplines=".4 0 .2 1" dur="0.24s" begin="0s" fill="freeze"/></path>
<path d="M40.4 39.2C41.6 38.2 43.6 38.1 44.8 38.9" fill="none" stroke="#2b2233" stroke-width="2.5" pathLength="1" stroke-dasharray="1"><animate attributeName="stroke-dashoffset" values="1.01;1.01;0" keyTimes="0;0.467;1" calcMode="spline" keySplines="0 0 1 1;.4 0 .2 1" dur="0.3s" begin="0s" fill="freeze"/></path>
<path d="M51 38.9C52.2 38.1 54.2 38.2 55.4 39.2" fill="none" stroke="#2b2233" stroke-width="2.5" pathLength="1" stroke-dasharray="1"><animate attributeName="stroke-dashoffset" values="1.01;1.01;0" keyTimes="0;0.5;1" calcMode="spline" keySplines="0 0 1 1;.4 0 .2 1" dur="0.32s" begin="0s" fill="freeze"/></path>
<path d="M47.4 43C47.2 45.4 46.9 47.2 46.3 48.4C47 49.1 48.2 49.1 48.9 48.5" fill="none" stroke="#2b2233" stroke-width="2.5" pathLength="1" stroke-dasharray="1"><animate attributeName="stroke-dashoffset" values="1.01;1.01;0" keyTimes="0;0.529;1" calcMode="spline" keySplines="0 0 1 1;.4 0 .2 1" dur="0.34s" begin="0s" fill="freeze"/></path>
<path d="M31 26.5C31 18 37.5 12.5 47.5 12.5C57.5 12.5 67 18 67 26.5" fill="none" stroke="#2b2233" stroke-width="3.5" pathLength="1" stroke-dasharray="1"><animate attributeName="stroke-dashoffset" values="1.01;1.01;0" keyTimes="0;0.238;1" calcMode="spline" keySplines="0 0 1 1;.4 0 .2 1" dur="0.42s" begin="0s" fill="freeze"/></path>
<path d="M31 26.5L31.7 30.5M67 26.5L66.3 30.5M31.7 30C41 31.5 57 31.5 66.3 30M31.7 29.5C34.5 33.2 41 34.8 47.5 34.8C54 34.8 60.5 33.2 66.3 29.5" fill="none" stroke="#2b2233" stroke-width="2.5" pathLength="1" stroke-dasharray="1"><animate attributeName="stroke-dashoffset" values="1.01;1.01;0" keyTimes="0;0.667;1" calcMode="spline" keySplines="0 0 1 1;.4 0 .2 1" dur="0.48s" begin="0s" fill="freeze"/></path>
<path d="M39.5 42.6a3.2 3.2 0 1 0 6.4 0a3.2 3.2 0 1 0-6.4 0ZM49.7 42.6a3.2 3.2 0 1 0 6.4 0a3.2 3.2 0 1 0-6.4 0Z" fill="none" stroke="#2b2233" stroke-width="2.5" pathLength="1" stroke-dasharray="1"><animate attributeName="stroke-dashoffset" values="1.01;1.01;0" keyTimes="0;0.7;1" calcMode="spline" keySplines="0 0 1 1;.4 0 .2 1" dur="0.72s" begin="0s" fill="freeze"/></path>
<path d="M45.9 42.6L49.7 42.6M39.5 42.6L35.8 43M56.1 42.6L60 43" fill="none" stroke="#2b2233" stroke-width="2.5" pathLength="1" stroke-dasharray="1"><animate attributeName="stroke-dashoffset" values="1.01;1.01;0" keyTimes="0;0.72;1" calcMode="spline" keySplines="0 0 1 1;.4 0 .2 1" dur="0.74s" begin="0s" fill="freeze"/></path>
<path d="M43 56L43 63.2M52 56L52 63.2" fill="none" stroke="#2b2233" stroke-width="2.5" pathLength="1" stroke-dasharray="1"><animate attributeName="stroke-dashoffset" values="1.01;1.01;0" keyTimes="0;0.769;1" calcMode="spline" keySplines="0 0 1 1;.4 0 .2 1" dur="0.52s" begin="0s" fill="freeze"/></path>
<path d="M40.5 62.5C43.5 65.8 51.5 65.8 54.5 62.5" fill="none" stroke="#2b2233" stroke-width="2.5" pathLength="1" stroke-dasharray="1"><animate attributeName="stroke-dashoffset" values="1.01;1.01;0" keyTimes="0;0.759;1" calcMode="spline" keySplines="0 0 1 1;.4 0 .2 1" dur="0.58s" begin="0s" fill="freeze"/></path>
<path d="M41 63C44 66 51 66 54 63M42 65L42 71M53 65L53 71" fill="none" stroke="#2b2233" stroke-width="2.5" pathLength="1" stroke-dasharray="1"><animate attributeName="stroke-dashoffset" values="1.01;1.01;0" keyTimes="0;0.774;1" calcMode="spline" keySplines="0 0 1 1;.4 0 .2 1" dur="0.62s" begin="0s" fill="freeze"/></path>
<path d="M38.5 69.5C33 71 27.5 74.5 24.5 79C22.6 82 22.2 84.5 22.2 86.5" fill="none" stroke="#2b2233" stroke-width="3.5" pathLength="1" stroke-dasharray="1"><animate attributeName="stroke-dashoffset" values="1.01;1.01;0" keyTimes="0;0.714;1" calcMode="spline" keySplines="0 0 1 1;.4 0 .2 1" dur="0.7s" begin="0s" fill="freeze"/></path>
<path d="M56.5 69.5C62 71 67.5 74.5 70.5 79C72.4 82 72.8 84.5 72.8 86.5" fill="none" stroke="#2b2233" stroke-width="3.5" pathLength="1" stroke-dasharray="1"><animate attributeName="stroke-dashoffset" values="1.01;1.01;0" keyTimes="0;0.73;1" calcMode="spline" keySplines="0 0 1 1;.4 0 .2 1" dur="0.74s" begin="0s" fill="freeze"/></path>
<path d="M25 83C28 81 31.5 80.5 34 81M75 83C72 81 68.5 80.5 66 81" fill="none" stroke="#d4a437" stroke-width="2.5" pathLength="1" stroke-dasharray="1"><animate attributeName="stroke-dashoffset" values="1.01;1.01;0" keyTimes="0;0.795;1" calcMode="spline" keySplines="0 0 1 1;.4 0 .2 1" dur="0.82s" begin="0s" fill="freeze"/></path>
<path d="M78.5 39.5C77 37 75.5 36 74.5 35.5M79.5 39.5C81 37 82.5 36 83.5 35.5M78 41C75 40.5 72 40 70 39.5M80 41C83 40.5 86 40 88 39.5" fill="none" stroke="#2b2233" stroke-width="2.5" pathLength="1" stroke-dasharray="1"><animate attributeName="stroke-dashoffset" values="1.01;1.01;0" keyTimes="0;0.78;1" calcMode="spline" keySplines="0 0 1 1;.4 0 .2 1" dur="0.9s" begin="0s" fill="freeze"/></path>
<path d="M84 33L84 36M82.5 34.5L85.5 34.5M89.5 46L89.5 48.5M88.3 47.2L90.7 47.2" fill="none" stroke="#d4a437" stroke-width="2.5" pathLength="1" stroke-dasharray="1"><animate attributeName="stroke-dashoffset" values="1.01;1.01;0" keyTimes="0;0.82;1" calcMode="spline" keySplines="0 0 1 1;.4 0 .2 1" dur="1s" begin="0s" fill="freeze"/></path>
</svg>
