<svg xmlns="http://www.w3.org/2000/svg" viewBox="0 0 100 100" aria-hidden="true" stroke-linecap="round" stroke-linejoin="round">
<path d="M38.5 69.5C33 71 27.5 74.5 24.5 79C22.6 82 22.2 84.5 22.2 86.5C28.5 91.5 38 93.6 47.5 93.6C57 93.6 66 91.5 72.8 86.5C72.8 84.5 72.4 82 70.5 79C67.5 74.5 62 71 56.5 69.5C51.5 72.8 43.5 72.8 38.5 69.5Z" fill="#5a5244"><animate attributeName="opacity" values="0;0;1" keyTimes="0;0.674;1" dur="0.86s" begin="0s" fill="freeze"/></path>
<path d="M43 54.5L43 64C45.5 66 49.5 66 52 64L52 54.5C49.5 57.5 45.5 57.5 43 54.5Z" fill="#eec49c"><animate attributeName="opacity" values="0;0;1" keyTimes="0;0.633;1" dur="0.6s" begin="0s" fill="freeze"/></path>
<path d="M43 55C45.5 57.8 49.5 57.8 52 55L52 58.5C49.5 60.8 45.5 60.8 43 58.5Z" fill="#dfa878"><animate attributeName="opacity" values="0;0;1" keyTimes="0;0.714;1" dur="0.7s" begin="0s" fill="freeze"/></path>
<path d="M40.5 63C43.5 66.3 51.5 66.3 54.5 63L56.5 69.5C51.5 72.8 43.5 72.8 38.5 69.5Z" fill="#f4e9d8"><animate attributeName="opacity" values="0;0;1" keyTimes="0;0.694;1" dur="0.72s" begin="0s" fill="freeze"/></path>
<path d="M35.2 34C35.2 26.8 40.6 23.6 47.5 23.6C54.4 23.6 60 27 60 34.2C60 43.5 58 50.8 54.2 54.8C50.4 58.8 44.6 58.7 40.9 54.6C37.2 50.4 35.2 43 35.2 34Z" fill="#eec49c"><animate attributeName="opacity" values="0;0;1" keyTimes="0;0.548;1" dur="0.62s" begin="0s" fill="freeze"/></path>
<path d="M40.9 42.6a1.8 1.5 0 1 0 3.6 0a1.8 1.5 0 1 0-3.6 0ZM51.1 42.6a1.8 1.5 0 1 0 3.6 0a1.8 1.5 0 1 0-3.6 0Z" fill="#2b2233"><animate attributeName="opacity" values="0;0;1" keyTimes="0;0.571;1" dur="0.42s" begin="0s" fill="freeze"/></path>
<path d="M34.6 30C33.9 36 34 43 35 48C36.2 53.5 38.5 57 42 59.5C45 61.5 50 61.5 53 59.5C56.5 57 58.8 53.5 60 48C61 43 61.1 36 60.4 30C59.5 36 57.5 43 55 46.5C53.5 48.5 51 49.5 49 49.5C48.5 49.6 47 49.6 46.5 49.5C44.5 49.5 42 48.5 40.5 46.5C38 43 36 36 34.6 30Z" fill="#6e4a2f"><animate attributeName="opacity" values="0;0;1" keyTimes="0;0.517;1" dur="0.58s" begin="0s" fill="freeze"/></path>
<path d="M37 50C38 54 40 57 43 59.2C41 56 39.5 52.5 39 49C38.2 49.4 37.5 49.7 37 50Z" fill="#82603f"><animate attributeName="opacity" values="0;0;1" keyTimes="0;0.694;1" dur="0.72s" begin="0s" fill="freeze"/></path>
<path d="M29.5 25.5C29.5 23.2 38 22 47.5 22C57 22 65.5 23.2 65.5 25.5C65.5 27.8 57 29 47.5 29C38 29 29.5 27.8 29.5 25.5Z" fill="#4a4038"><animate attributeName="opacity" values="0;0;1" keyTimes="0;0.607;1" dur="0.56s" begin="0s" fill="freeze"/></path>
<path d="M33.5 25.5C32.5 16 39.5 10.5 47.5 10.5C55.5 10.5 62.5 16 61.5 25.5C55 22.5 40 22.5 33.5 25.5Z" fill="#4a4038"><animate attributeName="opacity" values="0;0;1" keyTimes="0;0.517;1" dur="0.58s" begin="0s" fill="freeze"/></path>
<path d="M33.8 24C40 22.2 55 22.2 61.2 24L61.4 25.6C55 23.2 40 23.2 33.6 25.6Z" fill="#372f29"><animate attributeName="opacity" values="0;0;1" keyTimes="0;0.66;1" dur="0.6s" begin="0s" fill="freeze"/></path>
<path d="M72 42a6 6 0 1 0 12 0a6 6 0 1 0-12 0Z" fill="rgba(244,233,216,0.22)"><animate attributeName="opacity" values="0;0;1" keyTimes="0;0.787;1" dur="0.94s" begin="0s" fill="freeze"/></path>
<path d="M34.6 30C33.9 36 34 43 35 48C36.2 53.5 38.5 57 42 59.5C45 61.5 50 61.5 53 59.5C56.5 57 58.8 53.5 60 48C61 43 61.1 36 60.4 30" fill="none" stroke="#2b2233" stroke-width="3.5" pathLength="1" stroke-dasharray="1"><animate attributeName="stroke-dashoffset" values="1.01;0" keyTimes="0;1" calcMode="spline" keySplines=".4 0 .2 1" dur="0.24s" begin="0s" fill="freeze"/></path>
<path d="M40.2 38.4C41.8 38 43.8 38.4 45 39.6" fill="none" stroke="#2b2233" stroke-width="2.5" pathLength="1" stroke-dasharray="1"><animate attributeName="stroke-dashoffset" values="1.01;1.01;0" keyTimes="0;0.467;1" calcMode="spline" keySplines="0 0 1 1;.4 0 .2 1" dur="0.3s" begin="0s" fill="freeze"/></path>
<path d="M50 39.6C51.2 38.4 53.2 38 54.8 38.4" fill="none" stroke="#2b2233" stroke-width="2.5" pathLength="1" stroke-dasharray="1"><animate attributeName="stroke-dashoffset" values="1.01;1.01;0" keyTimes="0;0.5;1" calcMode="spline" keySplines="0 0 1 1;.4 0 .2 1" dur="0.32s" begin="0s" fill="freeze"/></path>
<path d="M47.4 43C47.2 45.4 46.9 47.2 46.3 48.4C47 49.1 48.2 49.1 48.9 48.5" fill="none" stroke="#2b2233" stroke-width="2.5" pathLength="1" stroke-dasharray="1"><animate attributeName="stroke-dashoffset" values="1.01;1.01;0" keyTimes="0;0.529;1" calcMode="spline" keySplines="0 0 1 1;.4 0 .2 1" dur="0.34s" begin="0s" fill="freeze"/></path>
<path d="M33.5 25.5C32.5 16 39.5 10.5 47.5 10.5C55.5 10.5 62.5 16 61.5 25.5" fill="none" stroke="#2b2233" stroke-width="3.5" pathLength="1" stroke-dasharray="1"><animate attributeName="stroke-dashoffset" values="1.01;1.01;0" keyTimes="0;0.238;1" calcMode="spline" keySplines="0 0 1 1;.4 0 .2 1" dur="0.42s" begin="0s" fill="freeze"/></path>
<path d="M29.5 25.5C29.5 23.2 38 22 47.5 22C57 22 65.5 23.2 65.5 25.5C65.5 27.8 57 29 47.5 29C38 29 29.5 27.8 29.5 25.5Z" fill="none" stroke="#2b2233" stroke-width="2.5" pathLength="1" stroke-dasharray="1"><animate attributeName="stroke-dashoffset" values="1.01;1.01;0" keyTimes="0;0.667;1" calcMode="spline" keySplines="0 0 1 1;.4 0 .2 1" dur="0.48s" begin="0s" fill="freeze"/></path>
<path d="M40.5 49.5C43 50.5 45 51 47.5 51C50 51 52 50.5 54.5 49.5" fill="none" stroke="#2b2233" stroke-width="2.5" pathLength="1" stroke-dasharray="1"><animate attributeName="stroke-dashoffset" values="1.01;1.01;0" keyTimes="0;0.72;1" calcMode="spline" keySplines="0 0 1 1;.4 0 .2 1" dur="0.5s" begin="0s" fill="freeze"/></path>
<path d="M40.5 63C43.5 66.3 51.5 66.3 54.5 63" fill="none" stroke="#2b2233" stroke-width="2.5" pathLength="1" stroke-dasharray="1"><animate attributeName="stroke-dashoffset" values="1.01;1.01;0" keyTimes="0;0.759;1" calcMode="spline" keySplines="0 0 1 1;.4 0 .2 1" dur="0.58s" begin="0s" fill="freeze"/></path>
<path d="M38.5 69.5C43.5 72.8 51.5 72.8 56.5 69.5" fill="none" stroke="#2b2233" stroke-width="2.5" pathLength="1" stroke-dasharray="1"><animate attributeName="stroke-dashoffset" values="1.01;1.01;0" keyTimes="0;0.774;1" calcMode="spline" keySplines="0 0 1 1;.4 0 .2 1" dur="0.62s" begin="0s" fill="freeze"/></path>
<path d="M38.5 69.5C33 71 27.5 74.5 24.5 79C22.6 82 22.2 84.5 22.2 86.5" fill="none" stroke="#2b2233" stroke-width="3.5" pathLength="1" stroke-dasharray="1"><animate attributeName="stroke-dashoffset" values="1.01;1.01;0" keyTimes="0;0.714;1" calcMode="spline" keySplines="0 0 1 1;.4 0 .2 1" dur="0.7s" begin="0s" fill="freeze"/></path>
<path d="M56.5 69.5C62 71 67.5 74.5 70.5 79C72.4 82 72.8 84.5 72.8 86.5" fill="none" stroke="#2b2233" stroke-width="3.5" pathLength="1" stroke-dasharray="1"><animate attributeName="stroke-dashoffset" values="1.01;1.01;0" keyTimes="0;0.73;1" calcMode="spline" keySplines="0 0 1 1;.4 0 .2 1" dur="0.74s" begin="0s" fill="freeze"/></path>
<path d="M44 71L40.5 88M51 71L54.5 88" fill="none" stroke="#2b2233" stroke-width="2.5" pathLength="1" stroke-dasharray="1"><animate attributeName="stroke-dashoffset" values="1.01;1.01;0" keyTimes="0;0.795;1" calcMode="spline" keySplines="0 0 1 1;.4 0 .2 1" dur="0.82s" begin="0s" fill="freeze"/></path>
<path d="M72 42a6 6 0 1 0 12 0a6 6 0 1 0-12 0Z" fill="none" stroke="#c9982f" stroke-width="2.5" pathLength="1" stroke-dasharray="1"><animate attributeName="stroke-dashoffset" values="1.01;1.01;0" keyTimes="0;0.725;1" calcMode="spline" keySplines="0 0 1 1;.4 0 .2 1" dur="0.8s" begin="0s" fill="freeze"/></path>
<path d="M82.2 46.2L89 53" fill="none" stroke="#c9982f" stroke-width="3.5" pathLength="1" stroke-dasharray="1"><animate attributeName="stroke-dashoffset" values="1.01;1.01;0" keyTimes="0;0.75;1" calcMode="spline" keySplines="0 0 1 1;.4 0 .2 1" dur="0.84s" begin="0s" fill="freeze"/></path>
<path d="M84 33.5L86 31.5M88 38L91 37M85 48L87 50" fill="none" stroke="#c9982f" stroke-width="2.5" pathLength="1" stroke-dasharray="1"><animate attributeName="stroke-dashoffset" values="1.01;1.01;0" keyTimes="0;0.78;1" calcMode="spline" keySplines="0 0 1 1;.4 0 .2 1" dur="1s" begin="0s" fill="freeze"/></path>
</svg>
