<svg xmlns="http://www.w3.org/2000/svg" viewBox="0 0 100 100" aria-hidden="true" stroke-linecap="round" stroke-linejoin="round">
<path d="M38.5 69.5C33 71 27.5 74.5 24.5 79C22.6 82 22.2 84.5 22.2 86.5C28.5 91.5 38 93.6 47.5 93.6C57 93.6 66 91.5 72.8 86.5C72.8 84.5 72.4 82 70.5 79C67.5 74.5 62 71 56.5 69.5C51.5 72.8 43.5 72.8 38.5 69.5Z" fill="#e6dcc8"><animate attributeName="opacity" values="0;0;1" keyTimes="0;0.674;1" dur="0.86s" begin="0s" fill="freeze"/></path>
<path d="M35.2 34C34 24 39 15 47.5 15C56 15 61 24 60 34.2C60 43.5 58 50.8 54.2 54.8C50.4 58.8 44.6 58.7 40.9 54.6C37.2 50.4 35.2 43 35.2 34Z" fill="#eec49c"><animate attributeName="opacity" values="0;0;1" keyTimes="0;0.548;1" dur="0.62s" begin="0s" fill="freeze"/></path>
<path d="M43 54.5L43 68C45.5 70 49.5 70 52 68L52 54.5C49.5 57.5 45.5 57.5 43 54.5Z" fill="#eec49c"><animate attributeName="opacity" values="0;0;1" keyTimes="0;0.633;1" dur="0.6s" begin="0s" fill="freeze"/></path>
<path d="M35 38C31 46 30 56 35 64C39 68 56 68 60 64C65 56 64 46 60 38C58.5 44 55.5 48.5 52 50C50 51.5 45 51.5 43 50C39.5 48.5 36.5 44 35 38Z" fill="#ddd5c4"><animate attributeName="opacity" values="0;0;1" keyTimes="0;0.517;1" dur="0.58s" begin="0s" fill="freeze"/></path>
<path d="M42 50C44.5 51 46.5 51.5 47.5 51.5C48.5 51.5 50.5 51 53 50C51.5 53 49.5 54.5 47.5 54.5C45.5 54.5 43.5 53 42 50Z" fill="#c9c0ab"><animate attributeName="opacity" values="0;0;1" keyTimes="0;0.694;1" dur="0.72s" begin="0s" fill="freeze"/></path>
<path d="M33 40C31.5 42 31.5 46 33 48C34.5 46 35 44 35 42ZM64 40C65.5 42 65.5 46 64 48C62.5 46 62 44 62 42Z" fill="#ddd5c4"><animate attributeName="opacity" values="0;0;1" keyTimes="0;0.607;1" dur="0.56s" begin="0s" fill="freeze"/></path>
<path d="M40.9 42.6a1.8 1.5 0 1 0 3.6 0a1.8 1.5 0 1 0-3.6 0ZM51.1 42.6a1.8 1.5 0 1 0 3.6 0a1.8 1.5 0 1 0-3.6 0Z" fill="#2b2233"><animate attributeName="opacity" values="0;0;1" keyTimes="0;0.571;1" dur="0.42s" begin="0s" fill="freeze"/></path>
<path d="M69 40.4L83 41.6L83 51.6L69 50.4Z" fill="#f4e9d8"><animate attributeName="opacity" values="0;0;1" keyTimes="0;0.787;1" dur="0.94s" begin="0s" fill="freeze"/></path>
<path d="M65.5 39.2C65.5 37.2 69.5 37.2 69.5 39.2L69.5 51.2C69.5 53.2 65.5 53.2 65.5 51.2Z" fill="#d8cfc0"><animate attributeName="opacity" values="0;0;1" keyTimes="0;0.778;1" dur="0.9s" begin="0s" fill="freeze"/></path>
<path d="M82.5 40.8C82.5 38.8 86.5 38.8 86.5 40.8L86.5 52.8C86.5 54.8 82.5 54.8 82.5 52.8Z" fill="#d8cfc0"><animate attributeName="opacity" values="0;0;1" keyTimes="0;0.773;1" dur="0.88s" begin="0s" fill="freeze"/></path>
<path d="M35.3 35C34 24 39 15 47.5 15C56 15 61 24 59.7 35" fill="none" stroke="#2b2233" stroke-width="3.5" pathLength="1" stroke-dasharray="1"><animate attributeName="stroke-dashoffset" values="1.01;0" keyTimes="0;1" calcMode="spline" keySplines=".4 0 .2 1" dur="0.24s" begin="0s" fill="freeze"/></path>
<path d="M40.4 39.5C41.6 37.8 43.6 37.8 45 38.6" fill="none" stroke="#2b2233" stroke-width="2.5" pathLength="1" stroke-dasharray="1"><animate attributeName="stroke-dashoffset" values="1.01;1.01;0" keyTimes="0;0.467;1" calcMode="spline" keySplines="0 0 1 1;.4 0 .2 1" dur="0.3s" begin="0s" fill="freeze"/></path>
<path d="M50.5 38.3C52 37.6 54 38 55.4 39.4" fill="none" stroke="#2b2233" stroke-width="2.5" pathLength="1" stroke-dasharray="1"><animate attributeName="stroke-dashoffset" values="1.01;1.01;0" keyTimes="0;0.5;1" calcMode="spline" keySplines="0 0 1 1;.4 0 .2 1" dur="0.32s" begin="0s" fill="freeze"/></path>
<path d="M47.4 43C47.2 45.4 46.9 47.2 46.3 48.4C47 49.1 48.2 49.1 48.9 48.5" fill="none" stroke="#2b2233" stroke-width="2.5" pathLength="1" stroke-dasharray="1"><animate attributeName="stroke-dashoffset" values="1.01;1.01;0" keyTimes="0;0.529;1" calcMode="spline" keySplines="0 0 1 1;.4 0 .2 1" dur="0.34s" begin="0s" fill="freeze"/></path>
<path d="M35 38C31 46 30 56 35 64C39 68 56 68 60 64C65 56 64 46 60 38" fill="none" stroke="#2b2233" stroke-width="3.5" pathLength="1" stroke-dasharray="1"><animate attributeName="stroke-dashoffset" values="1.01;1.01;0" keyTimes="0;0.238;1" calcMode="spline" keySplines="0 0 1 1;.4 0 .2 1" dur="0.42s" begin="0s" fill="freeze"/></path>
<path d="M43 56C43.5 60 44 62 45 64M52 56C51.5 60 51 62 50 64" fill="none" stroke="#c9c0ab" stroke-width="2.5" pathLength="1" stroke-dasharray="1"><animate attributeName="stroke-dashoffset" values="1.01;1.01;0" keyTimes="0;0.667;1" calcMode="spline" keySplines="0 0 1 1;.4 0 .2 1" dur="0.48s" begin="0s" fill="freeze"/></path>
<path d="M38.5 69.5C33 71 27.5 74.5 24.5 79C22.6 82 22.2 84.5 22.2 86.5" fill="none" stroke="#2b2233" stroke-width="3.5" pathLength="1" stroke-dasharray="1"><animate attributeName="stroke-dashoffset" values="1.01;1.01;0" keyTimes="0;0.714;1" calcMode="spline" keySplines="0 0 1 1;.4 0 .2 1" dur="0.7s" begin="0s" fill="freeze"/></path>
<path d="M56.5 69.5C62 71 67.5 74.5 70.5 79C72.4 82 72.8 84.5 72.8 86.5" fill="none" stroke="#2b2233" stroke-width="3.5" pathLength="1" stroke-dasharray="1"><animate attributeName="stroke-dashoffset" values="1.01;1.01;0" keyTimes="0;0.73;1" calcMode="spline" keySplines="0 0 1 1;.4 0 .2 1" dur="0.74s" begin="0s" fill="freeze"/></path>
<path d="M32 73C36 76 40 79 44 82" fill="none" stroke="#8a9a5b" stroke-width="2.5" pathLength="1" stroke-dasharray="1"><animate attributeName="stroke-dashoffset" values="1.01;1.01;0" keyTimes="0;0.795;1" calcMode="spline" keySplines="0 0 1 1;.4 0 .2 1" dur="0.82s" begin="0s" fill="freeze"/></path>
<path d="M69 40.4L83 41.6M69 50.4L83 51.6M65.5 39.2C65.5 37.2 69.5 37.2 69.5 39.2L69.5 51.2C69.5 53.2 65.5 53.2 65.5 51.2L65.5 39.2M82.5 40.8C82.5 38.8 86.5 38.8 86.5 40.8L86.5 52.8C86.5 54.8 82.5 54.8 82.5 52.8L82.5 40.8M67.5 35.8C69 35.8 69 38.2 67.5 38.2C66.4 38.2 66.4 36.6 67.5 36.6C68.2 36.6 68.2 37.6 67.5 37.6M84.5 37.4C86 37.4 86 39.8 84.5 39.8C83.4 39.8 83.4 38.2 84.5 38.2C85.2 38.2 85.2 39.2 84.5 39.2" fill="none" stroke="#2b2233" stroke-width="2.5" pathLength="1" stroke-dasharray="1"><animate attributeName="stroke-dashoffset" values="1.01;1.01;0" keyTimes="0;0.725;1" calcMode="spline" keySplines="0 0 1 1;.4 0 .2 1" dur="0.8s" begin="0s" fill="freeze"/></path>
<path d="M72 44.1L80 44.9M72 47.1L80 47.9" fill="none" stroke="#2b2233" stroke-width="2.5" pathLength="1" stroke-dasharray="1"><animate attributeName="stroke-dashoffset" values="1.01;1.01;0" keyTimes="0;0.78;1" calcMode="spline" keySplines="0 0 1 1;.4 0 .2 1" dur="1s" begin="0s" fill="freeze"/></path>
</svg>
