<svg xmlns="http://www.w3.org/2000/svg" viewBox="0 0 100 100" aria-hidden="true" stroke-linecap="round" stroke-linejoin="round">
<path d="M38.5 69.5C33 71 27.5 74.5 24.5 79C22.6 82 22.2 84.5 22.2 86.5C28.5 91.5 38 93.6 47.5 93.6C57 93.6 66 91.5 72.8 86.5C72.8 84.5 72.4 82 70.5 79C67.5 74.5 62 71 56.5 69.5C51.5 72.8 43.5 72.8 38.5 69.5Z" fill="#f4e9d8"><animate attributeName="opacity" values="0;0;1" keyTimes="0;0.674;1" dur="0.86s" begin="0s" fill="freeze"/></path>
<path d="M58 42a5 5 0 1 0 10 0a5 5 0 1 0-10 0Z" fill="#6e3b2a"><animate attributeName="opacity" values="0;0;1" keyTimes="0;0.607;1" dur="0.56s" begin="0s" fill="freeze"/></path>
<path d="M43 54.5L43 64C45.5 66 49.5 66 52 64L52 54.5C49.5 57.5 45.5 57.5 43 54.5Z" fill="#eec49c"><animate attributeName="opacity" values="0;0;1" keyTimes="0;0.633;1" dur="0.6s" begin="0s" fill="freeze"/></path>
<path d="M43 55C45.5 57.8 49.5 57.8 52 55L52 58.5C49.5 60.8 45.5 60.8 43 58.5Z" fill="#dfa878"><animate attributeName="opacity" values="0;0;1" keyTimes="0;0.714;1" dur="0.7s" begin="0s" fill="freeze"/></path>
<path d="M40.5 63C43.5 66.3 51.5 66.3 54.5 63L56.5 69.5C51.5 72.8 43.5 72.8 38.5 69.5Z" fill="#f4e9d8"><animate attributeName="opacity" values="0;0;1" keyTimes="0;0.694;1" dur="0.72s" begin="0s" fill="freeze"/></path>
<path d="M35.2 34C35.2 26.8 40.6 23.6 47.5 23.6C54.4 23.6 60 27 60 34.2C60 43.5 58 50.8 54.2 54.8C50.4 58.8 44.6 58.7 40.9 54.6C37.2 50.4 35.2 43 35.2 34Z" fill="#eec49c"><animate attributeName="opacity" values="0;0;1" keyTimes="0;0.548;1" dur="0.62s" begin="0s" fill="freeze"/></path>
<path d="M38.7 47.2a2.3 1.9 0 1 0 4.6 0a2.3 1.9 0 1 0-4.6 0ZM51.7 47.2a2.3 1.9 0 1 0 4.6 0a2.3 1.9 0 1 0-4.6 0Z" fill="rgba(197,116,92,0.26)"><animate attributeName="opacity" values="0;0;1" keyTimes="0;0.733;1" dur="0.75s" begin="0s" fill="freeze"/></path>
<path d="M43.9 52.1C45.3 51.2 46.9 51.4 47.6 52C48.3 51.4 49.9 51.2 51.3 52.1C50 53.7 45.3 53.7 43.9 52.1Z" fill="#b56a68"><animate attributeName="opacity" values="0;0;1" keyTimes="0;0.652;1" dur="0.46s" begin="0s" fill="freeze"/></path>
<path d="M40.9 42.6a1.8 1.5 0 1 0 3.6 0a1.8 1.5 0 1 0-3.6 0ZM51.1 42.6a1.8 1.5 0 1 0 3.6 0a1.8 1.5 0 1 0-3.6 0Z" fill="#2b2233"><animate attributeName="opacity" values="0;0;1" keyTimes="0;0.571;1" dur="0.42s" begin="0s" fill="freeze"/></path>
<path d="M35.5 44C33 37 33 27 36 21C39 15.5 44 14 47.5 14C51 14 56 15.5 59 21C62 27 62 37 59.5 44C58 39 57 32 54 29C50 25.5 45 25.5 41 29C38 32 37 39 35.5 44Z" fill="#6e3b2a"><animate attributeName="opacity" values="0;0;1" keyTimes="0;0.517;1" dur="0.58s" begin="0s" fill="freeze"/></path>
<path d="M54 18C58 20.5 60 25 60 29C58.5 25 55.5 21 52 19C52.8 18.4 53.3 17.8 54 18Z" fill="#8a4a34"><animate attributeName="opacity" values="0;0;1" keyTimes="0;0.694;1" dur="0.72s" begin="0s" fill="freeze"/></path>
<path d="M35 33C42 28 58 28 61 33C60 30.5 58 29.5 56 29C51 28 44 28 39 29.3C37.2 29.8 36 31 35 33Z" fill="#d4a437"><animate attributeName="opacity" values="0;0;1" keyTimes="0;0.778;1" dur="0.9s" begin="0s" fill="freeze"/></path>
<path d="M32.4 73a1.6 1.6 0 1 0 3.2 0a1.6 1.6 0 1 0-3.2 0ZM59.4 73a1.6 1.6 0 1 0 3.2 0a1.6 1.6 0 1 0-3.2 0Z" fill="#d4a437"><animate attributeName="opacity" values="0;0;1" keyTimes="0;0.805;1" dur="0.82s" begin="0s" fill="freeze"/></path>
<path d="M71 46a7 7 0 1 0 14 0a7 7 0 1 0-14 0Z" fill="#e05252"><animate attributeName="opacity" values="0;0;1" keyTimes="0;0.787;1" dur="0.94s" begin="0s" fill="freeze"/></path>
<path d="M35.4 33C34.8 40.5 36.2 48.8 40.9 54.6C44.4 58.6 50.4 58.7 54.2 54.8C58.4 50 59.8 41 59.6 33.5" fill="none" stroke="#2b2233" stroke-width="3.5" pathLength="1" stroke-dasharray="1"><animate attributeName="stroke-dashoffset" values="1.01;0" keyTimes="0;1" calcMode="spline" keySplines=".4 0 .2 1" dur="0.24s" begin="0s" fill="freeze"/></path>
<path d="M40.4 39.2C41.6 38.2 43.6 38.1 44.8 38.9" fill="none" stroke="#2b2233" stroke-width="2.5" pathLength="1" stroke-dasharray="1"><animate attributeName="stroke-dashoffset" values="1.01;1.01;0" keyTimes="0;0.467;1" calcMode="spline" keySplines="0 0 1 1;.4 0 .2 1" dur="0.3s" begin="0s" fill="freeze"/></path>
<path d="M51 38.9C52.2 38.1 54.2 38.2 55.4 39.2" fill="none" stroke="#2b2233" stroke-width="2.5" pathLength="1" stroke-dasharray="1"><animate attributeName="stroke-dashoffset" values="1.01;1.01;0" keyTimes="0;0.5;1" calcMode="spline" keySplines="0 0 1 1;.4 0 .2 1" dur="0.32s" begin="0s" fill="freeze"/></path>
<path d="M47.4 43C47.2 45.4 46.9 47.2 46.3 48.4C47 49.1 48.2 49.1 48.9 48.5" fill="none" stroke="#2b2233" stroke-width="2.5" pathLength="1" stroke-dasharray="1"><animate attributeName="stroke-dashoffset" values="1.01;1.01;0" keyTimes="0;0.529;1" calcMode="spline" keySplines="0 0 1 1;.4 0 .2 1" dur="0.34s" begin="0s" fill="freeze"/></path>
<path d="M35.5 44C33 37 33 27 36 21C39 15.5 44 14 47.5 14C51 14 56 15.5 59 21C62 27 62 37 59.5 44" fill="none" stroke="#2b2233" stroke-width="3.5" pathLength="1" stroke-dasharray="1"><animate attributeName="stroke-dashoffset" values="1.01;1.01;0" keyTimes="0;0.238;1" calcMode="spline" keySplines="0 0 1 1;.4 0 .2 1" dur="0.42s" begin="0s" fill="freeze"/></path>
<path d="M47.5 14L47.5 25M59.5 44C58 39 57 32 54 29C50 25.5 45 25.5 41 29C38 32 37 39 35.5 44" fill="none" stroke="#2b2233" stroke-width="2.5" pathLength="1" stroke-dasharray="1"><animate attributeName="stroke-dashoffset" values="1.01;1.01;0" keyTimes="0;0.667;1" calcMode="spline" keySplines="0 0 1 1;.4 0 .2 1" dur="0.48s" begin="0s" fill="freeze"/></path>
<path d="M43 56L43 63.2M52 56L52 63.2" fill="none" stroke="#2b2233" stroke-width="2.5" pathLength="1" stroke-dasharray="1"><animate attributeName="stroke-dashoffset" values="1.01;1.01;0" keyTimes="0;0.769;1" calcMode="spline" keySplines="0 0 1 1;.4 0 .2 1" dur="0.52s" begin="0s" fill="freeze"/></path>
<path d="M40.5 63C43.5 66.3 51.5 66.3 54.5 63" fill="none" stroke="#2b2233" stroke-width="2.5" pathLength="1" stroke-dasharray="1"><animate attributeName="stroke-dashoffset" values="1.01;1.01;0" keyTimes="0;0.759;1" calcMode="spline" keySplines="0 0 1 1;.4 0 .2 1" dur="0.58s" begin="0s" fill="freeze"/></path>
<path d="M38.5 69.5C43.5 72.8 51.5 72.8 56.5 69.5" fill="none" stroke="#2b2233" stroke-width="2.5" pathLength="1" stroke-dasharray="1"><animate attributeName="stroke-dashoffset" values="1.01;1.01;0" keyTimes="0;0.774;1" calcMode="spline" keySplines="0 0 1 1;.4 0 .2 1" dur="0.62s" begin="0s" fill="freeze"/></path>
<path d="M38.5 69.5C33 71 27.5 74.5 24.5 79C22.6 82 22.2 84.5 22.2 86.5" fill="none" stroke="#2b2233" stroke-width="3.5" pathLength="1" stroke-dasharray="1"><animate attributeName="stroke-dashoffset" values="1.01;1.01;0" keyTimes="0;0.714;1" calcMode="spline" keySplines="0 0 1 1;.4 0 .2 1" dur="0.7s" begin="0s" fill="freeze"/></path>
<path d="M56.5 69.5C62 71 67.5 74.5 70.5 79C72.4 82 72.8 84.5 72.8 86.5" fill="none" stroke="#2b2233" stroke-width="3.5" pathLength="1" stroke-dasharray="1"><animate attributeName="stroke-dashoffset" values="1.01;1.01;0" keyTimes="0;0.73;1" calcMode="spline" keySplines="0 0 1 1;.4 0 .2 1" dur="0.74s" begin="0s" fill="freeze"/></path>
<path d="M39 75L37.5 92M47.5 74L47.5 93M56 75L57.5 92" fill="none" stroke="#2b2233" stroke-width="2.5" pathLength="1" stroke-dasharray="1"><animate attributeName="stroke-dashoffset" values="1.01;1.01;0" keyTimes="0;0.795;1" calcMode="spline" keySplines="0 0 1 1;.4 0 .2 1" dur="0.82s" begin="0s" fill="freeze"/></path>
<path d="M72 43C75.5 45 80.5 45 84 43M71.5 47.5C75.5 49.5 80.5 49.5 84.5 47.5M75.5 39.5C78.5 44 78.5 48 75.5 52.5" fill="none" stroke="#b83a3a" stroke-width="2.5" pathLength="1" stroke-dasharray="1"><animate attributeName="stroke-dashoffset" values="1.01;1.01;0" keyTimes="0;0.725;1" calcMode="spline" keySplines="0 0 1 1;.4 0 .2 1" dur="0.8s" begin="0s" fill="freeze"/></path>
<path d="M72 49.5C66 52 70 58 63 61C59 63 61 67 58.5 70" fill="none" stroke="#e05252" stroke-width="2.5" pathLength="1" stroke-dasharray="1"><animate attributeName="stroke-dashoffset" values="1.01;1.01;0" keyTimes="0;0.78;1" calcMode="spline" keySplines="0 0 1 1;.4 0 .2 1" dur="1s" begin="0s" fill="freeze"/></path>
</svg>
