<svg xmlns="http://www.w3.org/2000/svg" viewBox="0 0 100 100" aria-hidden="true" stroke-linecap="round" stroke-linejoin="round">
<path d="M38.5 69.5C33 71 27.5 74.5 24.5 79C22.6 82 22.2 84.5 22.2 86.5C28.5 91.5 38 93.6 47.5 93.6C57 93.6 66 91.5 72.8 86.5C72.8 84.5 72.4 82 70.5 79C67.5 74.5 62 71 56.5 69.5C51.5 72.8 43.5 72.8 38.5 69.5Z" fill="#2b2b33"><animate attributeName="opacity" values="0;0;1" keyTimes="0;0.674;1" dur="0.86s" begin="0s" fill="freeze"/></path>
<path d="M36 72C36 66 38 62 42 60L45 64L44 71Z" fill="#23232a"><animate attributeName="opacity" values="0;0;1" keyTimes="0;0.7;1" dur="0.74s" begin="0s" fill="freeze"/></path>
<path d="M59 72C59 66 57 62 53 60L50 64L51 71Z" fill="#23232a"><animate attributeName="opacity" values="0;0;1" keyTimes="0;0.71;1" dur="0.76s" begin="0s" fill="freeze"/></path>
<path d="M43 54.5L43 64C45.5 66 49.5 66 52 64L52 54.5C49.5 57.5 45.5 57.5 43 54.5Z" fill="#a06840"><animate attributeName="opacity" values="0;0;1" keyTimes="0;0.633;1" dur="0.6s" begin="0s" fill="freeze"/></path>
<path d="M43 55C45.5 57.8 49.5 57.8 52 55L52 58.5C49.5 60.8 45.5 60.8 43 58.5Z" fill="#7a4e30"><animate attributeName="opacity" values="0;0;1" keyTimes="0;0.714;1" dur="0.7s" begin="0s" fill="freeze"/></path>
<path d="M40.5 63C43.5 66.3 51.5 66.3 54.5 63L56.5 69.5C51.5 72.8 43.5 72.8 38.5 69.5Z" fill="#f4e9d8"><animate attributeName="opacity" values="0;0;1" keyTimes="0;0.694;1" dur="0.72s" begin="0s" fill="freeze"/></path>
<path d="M34.5 35C32.5 25 36 15 47.5 14C59 15 62.5 25 60.5 35C55 29 40 29 34.5 35Z" fill="#a06840"><animate attributeName="opacity" values="0;0;1" keyTimes="0;0.5;1" dur="0.56s" begin="0s" fill="freeze"/></path>
<path d="M35.2 34C35.2 26.8 40.6 23.6 47.5 23.6C54.4 23.6 60 27 60 34.2C60 43.5 58 50.8 54.2 54.8C50.4 58.8 44.6 58.7 40.9 54.6C37.2 50.4 35.2 43 35.2 34Z" fill="#a06840"><animate attributeName="opacity" values="0;0;1" keyTimes="0;0.548;1" dur="0.62s" begin="0s" fill="freeze"/></path>
<path d="M40.9 42.6a1.8 1.5 0 1 0 3.6 0a1.8 1.5 0 1 0-3.6 0Z" fill="#2b2233"><animate attributeName="opacity" values="0;0;1" keyTimes="0;0.571;1" dur="0.42s" begin="0s" fill="freeze"/></path>
<path d="M49 40C49 37.5 51 36.5 53 36.5C55.5 36.5 57.5 38 57.5 41C57.5 44 55.5 45.5 53 45.5C50.5 45.5 49 43.5 49 40Z" fill="#1a1a1f"><animate attributeName="opacity" values="0;0;1" keyTimes="0;0.62;1" dur="0.64s" begin="0s" fill="freeze"/></path>
<path d="M43.5 53.5C45 57 50 57 51.5 53.5C50 55.5 45 55.5 43.5 53.5Z" fill="rgba(205,203,195,0.32)"><animate attributeName="opacity" values="0;0;1" keyTimes="0;0.733;1" dur="0.78s" begin="0s" fill="freeze"/></path>
<path d="M44.5 50.3C46 51.3 49 51.3 50.5 50.3C49 51.8 46 51.8 44.5 50.3Z" fill="rgba(205,203,195,0.32)"><animate attributeName="opacity" values="0;0;1" keyTimes="0;0.75;1" dur="0.8s" begin="0s" fill="freeze"/></path>
<path d="M39.5 50.5C40.5 53 41.8 55 43.5 56.5C41.8 54.5 40.8 52.5 40.5 50.3Z" fill="rgba(205,203,195,0.32)"><animate attributeName="opacity" values="0;0;1" keyTimes="0;0.76;1" dur="0.82s" begin="0s" fill="freeze"/></path>
<path d="M35.4 33C34.8 40.5 36.2 48.8 40.9 54.6C44.4 58.6 50.4 58.7 54.2 54.8C58.4 50 59.8 41 59.6 33.5" fill="none" stroke="#2b2233" stroke-width="3.5" pathLength="1" stroke-dasharray="1"><animate attributeName="stroke-dashoffset" values="1.01;0" keyTimes="0;1" calcMode="spline" keySplines=".4 0 .2 1" dur="0.24s" begin="0s" fill="freeze"/></path>
<path d="M40.2 39.8C41.8 39.6 43.6 40 45 41" fill="none" stroke="#2b2233" stroke-width="2.5" pathLength="1" stroke-dasharray="1"><animate attributeName="stroke-dashoffset" values="1.01;1.01;0" keyTimes="0;0.467;1" calcMode="spline" keySplines="0 0 1 1;.4 0 .2 1" dur="0.3s" begin="0s" fill="freeze"/></path>
<path d="M47.4 43C47.2 45.4 46.9 47.2 46.3 48.4C47 49.1 48.2 49.1 48.9 48.5" fill="none" stroke="#2b2233" stroke-width="2.5" pathLength="1" stroke-dasharray="1"><animate attributeName="stroke-dashoffset" values="1.01;1.01;0" keyTimes="0;0.529;1" calcMode="spline" keySplines="0 0 1 1;.4 0 .2 1" dur="0.34s" begin="0s" fill="freeze"/></path>
<path d="M44.5 52.5C46.5 53 48.5 53 50.5 52.5" fill="none" stroke="#2b2233" stroke-width="2.5" pathLength="1" stroke-dasharray="1"><animate attributeName="stroke-dashoffset" values="1.01;1.01;0" keyTimes="0;0.6;1" calcMode="spline" keySplines="0 0 1 1;.4 0 .2 1" dur="0.44s" begin="0s" fill="freeze"/></path>
<path d="M34 40C31.5 33 32 24 38.5 19.5C43 16.5 52 16.5 56.5 19.5C63 24 63.5 33 61 40" fill="none" stroke="#2b2233" stroke-width="3.5" pathLength="1" stroke-dasharray="1"><animate attributeName="stroke-dashoffset" values="1.01;1.01;0" keyTimes="0;0.238;1" calcMode="spline" keySplines="0 0 1 1;.4 0 .2 1" dur="0.42s" begin="0s" fill="freeze"/></path>
<path d="M49 40C49 37.5 51 36.5 53 36.5C55.5 36.5 57.5 38 57.5 41C57.5 44 55.5 45.5 53 45.5C50.5 45.5 49 43.5 49 40Z" fill="none" stroke="#2b2233" stroke-width="3.5" pathLength="1" stroke-dasharray="1"><animate attributeName="stroke-dashoffset" values="1.01;1.01;0" keyTimes="0;0.6;1" calcMode="spline" keySplines="0 0 1 1;.4 0 .2 1" dur="0.6s" begin="0s" fill="freeze"/></path>
<path d="M56 38C48 34 40 33 34 34" fill="none" stroke="#2b2233" stroke-width="2.5" pathLength="1" stroke-dasharray="1"><animate attributeName="stroke-dashoffset" values="1.01;1.01;0" keyTimes="0;0.667;1" calcMode="spline" keySplines="0 0 1 1;.4 0 .2 1" dur="0.48s" begin="0s" fill="freeze"/></path>
<path d="M40.5 63C43.5 66.3 51.5 66.3 54.5 63" fill="none" stroke="#2b2233" stroke-width="2.5" pathLength="1" stroke-dasharray="1"><animate attributeName="stroke-dashoffset" values="1.01;1.01;0" keyTimes="0;0.759;1" calcMode="spline" keySplines="0 0 1 1;.4 0 .2 1" dur="0.58s" begin="0s" fill="freeze"/></path>
<path d="M36 72C36 66 38 62 42 60M59 72C59 66 57 62 53 60" fill="none" stroke="#2b2233" stroke-width="2.5" pathLength="1" stroke-dasharray="1"><animate attributeName="stroke-dashoffset" values="1.01;1.01;0" keyTimes="0;0.72;1" calcMode="spline" keySplines="0 0 1 1;.4 0 .2 1" dur="0.5s" begin="0s" fill="freeze"/></path>
<path d="M38.5 69.5C43.5 72.8 51.5 72.8 56.5 69.5" fill="none" stroke="#2b2233" stroke-width="2.5" pathLength="1" stroke-dasharray="1"><animate attributeName="stroke-dashoffset" values="1.01;1.01;0" keyTimes="0;0.774;1" calcMode="spline" keySplines="0 0 1 1;.4 0 .2 1" dur="0.62s" begin="0s" fill="freeze"/></path>
<path d="M38.5 69.5C33 71 27.5 74.5 24.5 79C22.6 82 22.2 84.5 22.2 86.5" fill="none" stroke="#2b2233" stroke-width="3.5" pathLength="1" stroke-dasharray="1"><animate attributeName="stroke-dashoffset" values="1.01;1.01;0" keyTimes="0;0.714;1" calcMode="spline" keySplines="0 0 1 1;.4 0 .2 1" dur="0.7s" begin="0s" fill="freeze"/></path>
<path d="M56.5 69.5C62 71 67.5 74.5 70.5 79C72.4 82 72.8 84.5 72.8 86.5" fill="none" stroke="#2b2233" stroke-width="3.5" pathLength="1" stroke-dasharray="1"><animate attributeName="stroke-dashoffset" values="1.01;1.01;0" keyTimes="0;0.73;1" calcMode="spline" keySplines="0 0 1 1;.4 0 .2 1" dur="0.74s" begin="0s" fill="freeze"/></path>
<path d="M44 71L40.5 88M51 71L54.5 88" fill="none" stroke="#2b2233" stroke-width="2.5" pathLength="1" stroke-dasharray="1"><animate attributeName="stroke-dashoffset" values="1.01;1.01;0" keyTimes="0;0.795;1" calcMode="spline" keySplines="0 0 1 1;.4 0 .2 1" dur="0.82s" begin="0s" fill="freeze"/></path>
</svg>
