<svg xmlns="http://www.w3.org/2000/svg" viewBox="0 0 100 100" aria-hidden="true" stroke-linecap="round" stroke-linejoin="round">
<path d="M38.5 69.5C33 71 27.5 74.5 24.5 79C22.6 82 22.2 84.5 22.2 86.5C28.5 91.5 38 93.6 47.5 93.6C57 93.6 66 91.5 72.8 86.5C72.8 84.5 72.4 82 70.5 79C67.5 74.5 62 71 56.5 69.5C51.5 72.8 43.5 72.8 38.5 69.5Z" fill="#b3232a"><animate attributeName="opacity" values="0;0;1" keyTimes="0;0.674;1" dur="0.86s" begin="0s" fill="freeze"/></path>
<path d="M43 59L43 70L52 70L52 59C49.5 61.5 45.5 61.5 43 59Z" fill="#b3232a"><animate attributeName="opacity" values="0;0;1" keyTimes="0;0.62;1" dur="0.62s" begin="0s" fill="freeze"/></path>
<path d="M34 38C34 22 40 15 47.5 15C55 15 61 22 61 38C61 49 58 57 53 61C50 63.5 45 63.5 42 61C37 57 34 49 34 38Z" fill="#b3232a"><animate attributeName="opacity" values="0;0;1" keyTimes="0;0.548;1" dur="0.62s" begin="0s" fill="freeze"/></path>
<path d="M43 59.5C45.5 62 49.5 62 52 59.5L52 61.5C49.5 64 45.5 64 43 61.5Z" fill="#2b2b33"><animate attributeName="opacity" values="0;0;1" keyTimes="0;0.66;1" dur="0.64s" begin="0s" fill="freeze"/></path>
<path d="M39 34C40 32 55 32 56 34C57 40 56 46 54.5 50L51 56.5L44 56.5L41 50C39 46 38 40 39 34Z" fill="#d4a437"><animate attributeName="opacity" values="0;0;1" keyTimes="0;0.6;1" dur="0.7s" begin="0s" fill="freeze"/></path>
<path d="M40 44.6L44.8 43.2L45.2 45L40.4 46.4ZM55 44.6L50.2 43.2L49.8 45L54.6 46.4Z" fill="#f4e9d8"><animate attributeName="opacity" values="0;0;1" keyTimes="0;0.7;1" dur="0.75s" begin="0s" fill="freeze"/></path>
<path d="M40.5 82a7 7 0 1 0 14 0a7 7 0 1 0-14 0Z" fill="rgba(111,214,224,0.3)"><animate attributeName="opacity" values="0;0;1" keyTimes="0;0.82;1" dur="0.94s" begin="0s" fill="freeze"/></path>
<path d="M44.5 82a3 3 0 1 0 6 0a3 3 0 1 0-6 0Z" fill="#f4e9d8"><animate attributeName="opacity" values="0;0;1" keyTimes="0;0.85;1" dur="1s" begin="0s" fill="freeze"/></path>
<path d="M34 38C34 22 40 15 47.5 15C55 15 61 22 61 38C61 49 58 57 53 61C50 63.5 45 63.5 42 61C37 57 34 49 34 38Z" fill="none" stroke="#2b2233" stroke-width="3.5" pathLength="1" stroke-dasharray="1"><animate attributeName="stroke-dashoffset" values="1.01;0" keyTimes="0;1" calcMode="spline" keySplines=".4 0 .2 1" dur="0.24s" begin="0s" fill="freeze"/></path>
<path d="M39 34C40 32 55 32 56 34C57 40 56 46 54.5 50L51 56.5L44 56.5L41 50C39 46 38 40 39 34Z" fill="none" stroke="#2b2233" stroke-width="2.5" pathLength="1" stroke-dasharray="1"><animate attributeName="stroke-dashoffset" values="1.01;1.01;0" keyTimes="0;0.238;1" calcMode="spline" keySplines="0 0 1 1;.4 0 .2 1" dur="0.48s" begin="0s" fill="freeze"/></path>
<path d="M40 44.6L44.8 43.2L45.2 45L40.4 46.4ZM55 44.6L50.2 43.2L49.8 45L54.6 46.4Z" fill="none" stroke="#2b2233" stroke-width="2.5" pathLength="1" stroke-dasharray="1"><animate attributeName="stroke-dashoffset" values="1.01;1.01;0" keyTimes="0;0.5;1" calcMode="spline" keySplines="0 0 1 1;.4 0 .2 1" dur="0.6s" begin="0s" fill="freeze"/></path>
<path d="M38.5 69.5C33 71 27.5 74.5 24.5 79C22.6 82 22.2 84.5 22.2 86.5M56.5 69.5C62 71 67.5 74.5 70.5 79C72.4 82 72.8 84.5 72.8 86.5" fill="none" stroke="#2b2233" stroke-width="3.5" pathLength="1" stroke-dasharray="1"><animate attributeName="stroke-dashoffset" values="1.01;1.01;0" keyTimes="0;0.73;1" calcMode="spline" keySplines="0 0 1 1;.4 0 .2 1" dur="0.74s" begin="0s" fill="freeze"/></path>
<path d="M51.5 82a4 4 0 1 0-8 0a4 4 0 1 0 8 0Z" fill="none" stroke="#6fd6e0" stroke-width="2.5" pathLength="1" stroke-dasharray="1"><animate attributeName="stroke-dashoffset" values="1.01;1.01;0" keyTimes="0;0.78;1" calcMode="spline" keySplines="0 0 1 1;.4 0 .2 1" dur="1s" begin="0s" fill="freeze"/></path>
</svg>
