<svg xmlns="http://www.w3.org/2000/svg" viewBox="0 0 100 100" aria-hidden="true" stroke-linecap="round" stroke-linejoin="round">
<path d="M40 66C28 67 20 73 18.5 85C19 88 23 90 28 90.5C34 93 61 93 67 90.5C72 90 76 88 76.5 85C75 73 67 67 55 66C51 70 44 70 40 66Z" fill="#a4403a"><animate attributeName="opacity" values="0;0;1" keyTimes="0;0.674;1" dur="0.86s" begin="0s" fill="freeze"/></path>
<path d="M32 43C30 26 37 12 47.5 12C58 12 65 26 63 43C63 55 60 65 57 72C55 68 54 60 53 52C52 44 51 40 47.5 40C44 40 43 44 42 52C41 60 40 68 38 72C35 65 32 55 32 43Z" fill="#d8b25a"><animate attributeName="opacity" values="0;0;1" keyTimes="0;0.5;1" dur="0.6s" begin="0s" fill="freeze"/></path>
<path d="M35.2 34C35.2 26.8 40.6 23.6 47.5 23.6C54.4 23.6 60 27 60 34.2C60 43.5 58 50.8 54.2 54.8C50.4 58.8 44.6 58.7 40.9 54.6C37.2 50.4 35.2 43 35.2 34Z" fill="#eec49c"><animate attributeName="opacity" values="0;0;1" keyTimes="0;0.548;1" dur="0.62s" begin="0s" fill="freeze"/></path>
<path d="M43 54.5L43 64C45.5 66 49.5 66 52 64L52 54.5C49.5 57.5 45.5 57.5 43 54.5Z" fill="#eec49c"><animate attributeName="opacity" values="0;0;1" keyTimes="0;0.633;1" dur="0.6s" begin="0s" fill="freeze"/></path>
<path d="M40 69.5C35.5 71 30 74.5 27.5 79C25.8 82 25.5 84.5 25.5 86.5C31 90 39 92 47.5 92C56 92 64 90 69.5 86.5C69.5 84.5 69.2 82 67.5 79C65 74.5 59.5 71 55 69.5C51 72 44 72 40 69.5Z" fill="#c9c2b8"><animate attributeName="opacity" values="0;0;1" keyTimes="0;0.66;1" dur="0.78s" begin="0s" fill="freeze"/></path>
<path d="M37 46C37 55 41 62 47.5 64C54 62 58 55 58 46C56 51 52 53.5 47.5 53.5C43 53.5 39 51 37 46Z" fill="#c49a3f"><animate attributeName="opacity" values="0;0;1" keyTimes="0;0.56;1" dur="0.64s" begin="0s" fill="freeze"/></path>
<path d="M38.7 47.2a2.3 1.9 0 1 0 4.6 0a2.3 1.9 0 1 0-4.6 0ZM51.7 47.2a2.3 1.9 0 1 0 4.6 0a2.3 1.9 0 1 0-4.6 0Z" fill="rgba(197,116,92,0.26)"><animate attributeName="opacity" values="0;0;1" keyTimes="0;0.733;1" dur="0.75s" begin="0s" fill="freeze"/></path>
<path d="M43.9 51.6C45.3 50.9 46.9 51.1 47.6 51.6C48.3 51.1 49.9 50.9 51.3 51.6C50 53.1 45.3 53.1 43.9 51.6Z" fill="#b56a68"><animate attributeName="opacity" values="0;0;1" keyTimes="0;0.652;1" dur="0.46s" begin="0s" fill="freeze"/></path>
<path d="M40.9 42.6a1.8 1.5 0 1 0 3.6 0a1.8 1.5 0 1 0-3.6 0ZM51.1 42.6a1.8 1.5 0 1 0 3.6 0a1.8 1.5 0 1 0-3.6 0Z" fill="#2b2233"><animate attributeName="opacity" values="0;0;1" keyTimes="0;0.571;1" dur="0.42s" begin="0s" fill="freeze"/></path>
<path d="M36.5 82a3.5 3.5 0 1 0 7 0a3.5 3.5 0 1 0-7 0ZM51.5 82a3.5 3.5 0 1 0 7 0a3.5 3.5 0 1 0-7 0Z" fill="#b0a99e"><animate attributeName="opacity" values="0;0;1" keyTimes="0;0.75;1" dur="0.82s" begin="0s" fill="freeze"/></path>
<path d="M68 39L83 39L83 51L68 51Z" fill="#8a8f98"><animate attributeName="opacity" values="0;0;1" keyTimes="0;0.68;1" dur="0.86s" begin="0s" fill="freeze"/></path>
<path d="M73.5 51L73.5 65L77.5 65L77.5 51Z" fill="#7a5230"><animate attributeName="opacity" values="0;0;1" keyTimes="0;0.7;1" dur="0.88s" begin="0s" fill="freeze"/></path>
<path d="M72.5 67a3 3 0 1 0 6 0a3 3 0 1 0-6 0Z" fill="#7a5230"><animate attributeName="opacity" values="0;0;1" keyTimes="0;0.72;1" dur="0.9s" begin="0s" fill="freeze"/></path>
<path d="M35.4 33C34.8 40.5 36.2 48.8 40.9 54.6C44.4 58.6 50.4 58.7 54.2 54.8C58.4 50 59.8 41 59.6 33.5" fill="none" stroke="#2b2233" stroke-width="3.5" pathLength="1" stroke-dasharray="1"><animate attributeName="stroke-dashoffset" values="1.01;0" keyTimes="0;1" calcMode="spline" keySplines=".4 0 .2 1" dur="0.24s" begin="0s" fill="freeze"/></path>
<path d="M40.4 39.2C41.6 38.2 43.6 38.1 44.8 38.9M51 38.9C52.2 38.1 54.2 38.2 55.4 39.2M47.4 43C47.2 45.4 46.9 47.2 46.3 48.4C47 49.1 48.2 49.1 48.9 48.5" fill="none" stroke="#2b2233" stroke-width="2.5" pathLength="1" stroke-dasharray="1"><animate attributeName="stroke-dashoffset" values="1.01;1.01;0" keyTimes="0;0.467;1" calcMode="spline" keySplines="0 0 1 1;.4 0 .2 1" dur="0.34s" begin="0s" fill="freeze"/></path>
<path d="M32 43C30 26 37 12 47.5 12C58 12 65 26 63 43C63 55 60 65 57 72M32 43C32 55 35 65 38 72" fill="none" stroke="#2b2233" stroke-width="3.5" pathLength="1" stroke-dasharray="1"><animate attributeName="stroke-dashoffset" values="1.01;1.01;0" keyTimes="0;0.238;1" calcMode="spline" keySplines="0 0 1 1;.4 0 .2 1" dur="0.5s" begin="0s" fill="freeze"/></path>
<path d="M37 46C37 55 41 62 47.5 64C54 62 58 55 58 46" fill="none" stroke="#2b2233" stroke-width="2.5" pathLength="1" stroke-dasharray="1"><animate attributeName="stroke-dashoffset" values="1.01;1.01;0" keyTimes="0;0.6;1" calcMode="spline" keySplines="0 0 1 1;.4 0 .2 1" dur="0.6s" begin="0s" fill="freeze"/></path>
<path d="M43 52C45 53.4 50 53.4 52 52" fill="none" stroke="#2b2233" stroke-width="2.5" pathLength="1" stroke-dasharray="1"><animate attributeName="stroke-dashoffset" values="1.01;1.01;0" keyTimes="0;0.55;1" calcMode="spline" keySplines="0 0 1 1;.4 0 .2 1" dur="0.5s" begin="0s" fill="freeze"/></path>
<path d="M36.5 82a3.5 3.5 0 1 0 7 0a3.5 3.5 0 1 0-7 0ZM51.5 82a3.5 3.5 0 1 0 7 0a3.5 3.5 0 1 0-7 0Z" fill="none" stroke="#7a7268" stroke-width="2.5" pathLength="1" stroke-dasharray="1"><animate attributeName="stroke-dashoffset" values="1.01;1.01;0" keyTimes="0;0.75;1" calcMode="spline" keySplines="0 0 1 1;.4 0 .2 1" dur="0.85s" begin="0s" fill="freeze"/></path>
<path d="M40 66C28 67 20 73 18.5 85C19 88 23 90 28 90.5M55 66C67 67 75 73 76.5 85C76 88 72 90 67 90.5" fill="none" stroke="#2b2233" stroke-width="3.5" pathLength="1" stroke-dasharray="1"><animate attributeName="stroke-dashoffset" values="1.01;1.01;0" keyTimes="0;0.73;1" calcMode="spline" keySplines="0 0 1 1;.4 0 .2 1" dur="0.74s" begin="0s" fill="freeze"/></path>
<path d="M68 39L83 39L83 51L68 51ZM75.5 51L75.5 65" fill="none" stroke="#2b2233" stroke-width="2.5" pathLength="1" stroke-dasharray="1"><animate attributeName="stroke-dashoffset" values="1.01;1.01;0" keyTimes="0;0.7;1" calcMode="spline" keySplines="0 0 1 1;.4 0 .2 1" dur="0.88s" begin="0s" fill="freeze"/></path>
<path d="M69.5 42L76 42" fill="none" stroke="#f4e9d8" stroke-width="2.5" pathLength="1" stroke-dasharray="1"><animate attributeName="stroke-dashoffset" values="1.01;1.01;0" keyTimes="0;0.75;1" calcMode="spline" keySplines="0 0 1 1;.4 0 .2 1" dur="0.92s" begin="0s" fill="freeze"/></path>
<path d="M85 41L81 47L84 47L80 54M67 44L70 49L67.5 49L71 55" fill="none" stroke="#d4a437" stroke-width="2.5" pathLength="1" stroke-dasharray="1"><animate attributeName="stroke-dashoffset" values="1.01;1.01;0" keyTimes="0;0.8;1" calcMode="spline" keySplines="0 0 1 1;.4 0 .2 1" dur="1s" begin="0s" fill="freeze"/></path>
</svg>
