<svg xmlns="http://www.w3.org/2000/svg" viewBox="0 0 100 100" aria-hidden="true" stroke-linecap="round" stroke-linejoin="round">
<path d="M38.5 69.5C33 71 27.5 74.5 24.5 79C22.6 82 22.2 84.5 22.2 86.5C28.5 91.5 38 93.6 47.5 93.6C57 93.6 66 91.5 72.8 86.5C72.8 84.5 72.4 82 70.5 79C67.5 74.5 62 71 56.5 69.5C51.5 72.8 43.5 72.8 38.5 69.5Z" fill="#5e4638"><animate attributeName="opacity" values="0;0;1" keyTimes="0;0.674;1" dur="0.86s" begin="0s" fill="freeze"/></path>
<path d="M43 67.5L47.5 81L52 67.5C50 70 45 70 43 67.5Z" fill="#f4e9d8"><animate attributeName="opacity" values="0;0;1" keyTimes="0;0.694;1" dur="0.72s" begin="0s" fill="freeze"/></path>
<path d="M43 54.5L43 64C45.5 66 49.5 66 52 64L52 54.5C49.5 57.5 45.5 57.5 43 54.5Z" fill="#7a3040"><animate attributeName="opacity" values="0;0;1" keyTimes="0;0.633;1" dur="0.6s" begin="0s" fill="freeze"/></path>
<path d="M42 12C42.5 7 46 5 49.5 5.5C53 6 55 9 54.5 12.5C50.5 10.5 45.5 10.5 42 12Z" fill="#5a3d28"><animate attributeName="opacity" values="0;0;1" keyTimes="0;0.5;1" dur="0.56s" begin="0s" fill="freeze"/></path>
<path d="M35.2 34C35.2 26.8 40.6 23.6 47.5 23.6C54.4 23.6 60 27 60 34.2C60 43.5 58 50.8 54.2 54.8C50.4 58.8 44.6 58.7 40.9 54.6C37.2 50.4 35.2 43 35.2 34Z" fill="#7a3040"><animate attributeName="opacity" values="0;0;1" keyTimes="0;0.548;1" dur="0.62s" begin="0s" fill="freeze"/></path>
<path d="M35.4 33C34 26 34.5 18 37.5 14C40.5 10 44.5 9.5 49.5 9.5C54.5 9.5 58.5 10 61.5 14C64.5 18 65 26 59.6 33.5Z" fill="#7a3040"><animate attributeName="opacity" values="0;0;1" keyTimes="0;0.517;1" dur="0.58s" begin="0s" fill="freeze"/></path>
<path d="M33.3 45a6.7 5.3 0 1 0 13.4 0a6.7 5.3 0 1 0-13.4 0ZM48.3 45a6.7 5.3 0 1 0 13.4 0a6.7 5.3 0 1 0-13.4 0Z" fill="rgba(111,214,224,0.3)"><animate attributeName="opacity" values="0;0;1" keyTimes="0;0.72;1" dur="0.75s" begin="0s" fill="freeze"/></path>
<path d="M34.5 43.5C35 41 39.5 39.8 43.5 41C45.3 41.6 45 45 43.6 47.2C42.2 49.4 35.5 49.2 34.5 46.2Z" fill="#6fd6e0"><animate attributeName="opacity" values="0;0;1" keyTimes="0;0.633;1" dur="0.5s" begin="0s" fill="freeze"/></path>
<path d="M60.5 43.5C60 41 55.5 39.8 51.5 41C49.7 41.6 50 45 51.4 47.2C52.8 49.4 59.5 49.2 60.5 46.2Z" fill="#6fd6e0"><animate attributeName="opacity" values="0;0;1" keyTimes="0;0.633;1" dur="0.5s" begin="0s" fill="freeze"/></path>
<path d="M43.5 51h1.2v1.2h-1.2zM46.9 51h1.2v1.2h-1.2zM50.3 51h1.2v1.2h-1.2zM44.8 53.2h1.2v1.2h-1.2zM48.2 53.2h1.2v1.2h-1.2zM46.2 55.4h1.2v1.2h-1.2z" fill="#2b2233"><animate attributeName="opacity" values="0;0;1" keyTimes="0;0.72;1" dur="0.72s" begin="0s" fill="freeze"/></path>
<path d="M35.4 33C34.8 40.5 36.2 48.8 40.9 54.6C44.4 58.6 50.4 58.7 54.2 54.8C58.4 50 59.8 41 59.6 33.5" fill="none" stroke="#2b2233" stroke-width="3.5" pathLength="1" stroke-dasharray="1"><animate attributeName="stroke-dashoffset" values="1.01;0" keyTimes="0;1" calcMode="spline" keySplines=".4 0 .2 1" dur="0.24s" begin="0s" fill="freeze"/></path>
<path d="M35.4 33C34 26 34.5 18 37.5 14C40.5 10 44.5 9.5 49.5 9.5C54.5 9.5 58.5 10 61.5 14C64.5 18 65 26 59.6 33.5" fill="none" stroke="#2b2233" stroke-width="3.5" pathLength="1" stroke-dasharray="1"><animate attributeName="stroke-dashoffset" values="1.01;1.01;0" keyTimes="0;0.238;1" calcMode="spline" keySplines="0 0 1 1;.4 0 .2 1" dur="0.42s" begin="0s" fill="freeze"/></path>
<path d="M42 12C42.5 7 46 5 49.5 5.5C53 6 55 9 54.5 12.5" fill="none" stroke="#2b2233" stroke-width="2.5" pathLength="1" stroke-dasharray="1"><animate attributeName="stroke-dashoffset" values="1.01;1.01;0" keyTimes="0;0.3;1" calcMode="spline" keySplines="0 0 1 1;.4 0 .2 1" dur="0.44s" begin="0s" fill="freeze"/></path>
<path d="M35 39.5C40 36.5 55 36.5 60 39.5M47.5 38L47.5 49" fill="none" stroke="#2b2233" stroke-width="2.5" pathLength="1" stroke-dasharray="1"><animate attributeName="stroke-dashoffset" values="1.01;1.01;0" keyTimes="0;0.667;1" calcMode="spline" keySplines="0 0 1 1;.4 0 .2 1" dur="0.48s" begin="0s" fill="freeze"/></path>
<path d="M34.5 43.5C35 41 39.5 39.8 43.5 41C45.3 41.6 45 45 43.6 47.2C42.2 49.4 35.5 49.2 34.5 46.2ZM60.5 43.5C60 41 55.5 39.8 51.5 41C49.7 41.6 50 45 51.4 47.2C52.8 49.4 59.5 49.2 60.5 46.2Z" fill="none" stroke="#2b2233" stroke-width="2.5" pathLength="1" stroke-dasharray="1"><animate attributeName="stroke-dashoffset" values="1.01;1.01;0" keyTimes="0;0.5;1" calcMode="spline" keySplines="0 0 1 1;.4 0 .2 1" dur="0.42s" begin="0s" fill="freeze"/></path>
<path d="M43 56L43 63.2M52 56L52 63.2" fill="none" stroke="#2b2233" stroke-width="2.5" pathLength="1" stroke-dasharray="1"><animate attributeName="stroke-dashoffset" values="1.01;1.01;0" keyTimes="0;0.769;1" calcMode="spline" keySplines="0 0 1 1;.4 0 .2 1" dur="0.52s" begin="0s" fill="freeze"/></path>
<path d="M38.5 69.5C33 71 27.5 74.5 24.5 79C22.6 82 22.2 84.5 22.2 86.5" fill="none" stroke="#2b2233" stroke-width="3.5" pathLength="1" stroke-dasharray="1"><animate attributeName="stroke-dashoffset" values="1.01;1.01;0" keyTimes="0;0.714;1" calcMode="spline" keySplines="0 0 1 1;.4 0 .2 1" dur="0.7s" begin="0s" fill="freeze"/></path>
<path d="M56.5 69.5C62 71 67.5 74.5 70.5 79C72.4 82 72.8 84.5 72.8 86.5" fill="none" stroke="#2b2233" stroke-width="3.5" pathLength="1" stroke-dasharray="1"><animate attributeName="stroke-dashoffset" values="1.01;1.01;0" keyTimes="0;0.73;1" calcMode="spline" keySplines="0 0 1 1;.4 0 .2 1" dur="0.74s" begin="0s" fill="freeze"/></path>
<path d="M43 68L37.5 84M52 68L57.5 84" fill="none" stroke="#3f2f24" stroke-width="2.5" pathLength="1" stroke-dasharray="1"><animate attributeName="stroke-dashoffset" values="1.01;1.01;0" keyTimes="0;0.795;1" calcMode="spline" keySplines="0 0 1 1;.4 0 .2 1" dur="0.82s" begin="0s" fill="freeze"/></path>
<path d="M37.5 42.5L39 41M57.5 42.5L56 41" fill="none" stroke="#bff0f5" stroke-width="2.5" pathLength="1" stroke-dasharray="1"><animate attributeName="stroke-dashoffset" values="1.01;1.01;0" keyTimes="0;0.82;1" calcMode="spline" keySplines="0 0 1 1;.4 0 .2 1" dur="1s" begin="0s" fill="freeze"/></path>
</svg>
