<svg xmlns="http://www.w3.org/2000/svg" viewBox="0 0 100 100" aria-hidden="true" stroke-linecap="round" stroke-linejoin="round">
<path d="M62 53a14 14 0 1 0 28 0a14 14 0 1 0-28 0Z" fill="rgba(124,229,119,0.25)"><animate attributeName="opacity" values="0;0;1" keyTimes="0;0.759;1" dur="1.08s" begin="0s" fill="freeze"/></path>
<path d="M38.5 69.5C33 71 27.5 74.5 24.5 79C22.6 82 22.2 84.5 22.2 86.5C28.5 91.5 38 93.6 47.5 93.6C57 93.6 66 91.5 72.8 86.5C72.8 84.5 72.4 82 70.5 79C67.5 74.5 62 71 56.5 69.5C51.5 72.8 43.5 72.8 38.5 69.5Z" fill="#6b4a8a"><animate attributeName="opacity" values="0;0;1" keyTimes="0;0.674;1" dur="0.86s" begin="0s" fill="freeze"/></path>
<path d="M43 54.5L43 64C45.5 66 49.5 66 52 64L52 54.5C49.5 57.5 45.5 57.5 43 54.5Z" fill="#5da35a"><animate attributeName="opacity" values="0;0;1" keyTimes="0;0.633;1" dur="0.6s" begin="0s" fill="freeze"/></path>
<path d="M43 55C45.5 57.8 49.5 57.8 52 55L52 58.5C49.5 60.8 45.5 60.8 43 58.5Z" fill="#478247"><animate attributeName="opacity" values="0;0;1" keyTimes="0;0.714;1" dur="0.7s" begin="0s" fill="freeze"/></path>
<path d="M40.5 63C43.5 66.3 51.5 66.3 54.5 63L56.5 69.5C51.5 72.8 43.5 72.8 38.5 69.5Z" fill="#f4e9d8"><animate attributeName="opacity" values="0;0;1" keyTimes="0;0.694;1" dur="0.72s" begin="0s" fill="freeze"/></path>
<path d="M37 70L33.5 83L40.5 77L41.5 70Z" fill="#f4e9d8"><animate attributeName="opacity" values="0;0;1" keyTimes="0;0.7;1" dur="0.78s" begin="0s" fill="freeze"/></path>
<path d="M58 70L61.5 83L54.5 77L53.5 70Z" fill="#f4e9d8"><animate attributeName="opacity" values="0;0;1" keyTimes="0;0.71;1" dur="0.8s" begin="0s" fill="freeze"/></path>
<path d="M35.2 34C35.2 26.8 40.6 23.6 47.5 23.6C54.4 23.6 60 27 60 34.2C60 43.5 58 50.8 54.2 54.8C50.4 58.8 44.6 58.7 40.9 54.6C37.2 50.4 35.2 43 35.2 34Z" fill="#5da35a"><animate attributeName="opacity" values="0;0;1" keyTimes="0;0.548;1" dur="0.62s" begin="0s" fill="freeze"/></path>
<path d="M36.5 38C34.8 43 34.8 50 37 55.5C36.2 50 36.4 44 38 39C37.5 38.4 37 38.1 36.5 38ZM63.5 38C65.2 43 65.2 50 63 55.5C63.8 50 63.6 44 62 39C62.5 38.4 63 38.1 63.5 38Z" fill="#478247"><animate attributeName="opacity" values="0;0;1" keyTimes="0;0.6;1" dur="0.66s" begin="0s" fill="freeze"/></path>
<path d="M38.5 39.8C41 38 45 38.2 46.5 40C44.5 40 40.5 40.2 38.5 39.8ZM52.5 40C54 38.2 58 38 60.5 39.8C58.5 40.2 54.5 40 52.5 40Z" fill="#2b2233"><animate attributeName="opacity" values="0;0;1" keyTimes="0;0.5;1" dur="0.5s" begin="0s" fill="freeze"/></path>
<path d="M40.9 42.6a1.8 1.5 0 1 0 3.6 0a1.8 1.5 0 1 0-3.6 0ZM51.1 42.6a1.8 1.5 0 1 0 3.6 0a1.8 1.5 0 1 0-3.6 0Z" fill="#2b2233"><animate attributeName="opacity" values="0;0;1" keyTimes="0;0.571;1" dur="0.42s" begin="0s" fill="freeze"/></path>
<path d="M35.8 38.5C33.3 35 33 30 34.5 25C36.5 18.5 43 14.5 49.5 14.8C56.5 15.2 62 19.5 63.2 26C64 31 62.9 36.5 60.7 39.5C60.2 33 58.9 28.6 56.5 26.6C52.5 23.6 42.5 23.6 39 26.6C37 28.4 36.1 32.8 35.8 38.5Z" fill="#241d29"><animate attributeName="opacity" values="0;0;1" keyTimes="0;0.517;1" dur="0.58s" begin="0s" fill="freeze"/></path>
<path d="M74.8 46L69 61L83 61L77.2 46ZM74.8 41L74.8 46L77.2 46L77.2 41Z" fill="#f4e9d8"><animate attributeName="opacity" values="0;0;1" keyTimes="0;0.787;1" dur="0.94s" begin="0s" fill="freeze"/></path>
<path d="M72.3 55L70.5 61L81.5 61L79.7 55C77 56.2 75 56.2 72.3 55Z" fill="#7ce577"><animate attributeName="opacity" values="0;0;1" keyTimes="0;0.8;1" dur="0.98s" begin="0s" fill="freeze"/></path>
<path d="M73.5 57.5a0.9 0.9 0 1 0 1.8 0a0.9 0.9 0 1 0-1.8 0ZM77 58.5a0.7 0.7 0 1 0 1.4 0a0.7 0.7 0 1 0-1.4 0Z" fill="#d9f7d0"><animate attributeName="opacity" values="0;0;1" keyTimes="0;0.85;1" dur="1s" begin="0s" fill="freeze"/></path>
<path d="M35.4 33C34.8 40.5 36.2 48.8 40.9 54.6C44.4 58.6 50.4 58.7 54.2 54.8C58.4 50 59.8 41 59.6 33.5" fill="none" stroke="#2b2233" stroke-width="3.5" pathLength="1" stroke-dasharray="1"><animate attributeName="stroke-dashoffset" values="1.01;0" keyTimes="0;1" calcMode="spline" keySplines=".4 0 .2 1" dur="0.24s" begin="0s" fill="freeze"/></path>
<path d="M47.4 43C47.2 45.4 46.9 47.2 46.3 48.4C47 49.1 48.2 49.1 48.9 48.5" fill="none" stroke="#2b2233" stroke-width="2.5" pathLength="1" stroke-dasharray="1"><animate attributeName="stroke-dashoffset" values="1.01;1.01;0" keyTimes="0;0.529;1" calcMode="spline" keySplines="0 0 1 1;.4 0 .2 1" dur="0.34s" begin="0s" fill="freeze"/></path>
<path d="M44 52.5C46.5 54.5 50 54.2 52 51.5" fill="none" stroke="#2b2233" stroke-width="2.5" pathLength="1" stroke-dasharray="1"><animate attributeName="stroke-dashoffset" values="1.01;1.01;0" keyTimes="0;0.55;1" calcMode="spline" keySplines="0 0 1 1;.4 0 .2 1" dur="0.36s" begin="0s" fill="freeze"/></path>
<path d="M35.8 38.5C33.3 35 33 30 34.5 25C36.5 18.5 43 14.5 49.5 14.8C56.5 15.2 62 19.5 63.2 26C64 31 62.9 36.5 60.7 39.5" fill="none" stroke="#2b2233" stroke-width="3.5" pathLength="1" stroke-dasharray="1"><animate attributeName="stroke-dashoffset" values="1.01;1.01;0" keyTimes="0;0.238;1" calcMode="spline" keySplines="0 0 1 1;.4 0 .2 1" dur="0.42s" begin="0s" fill="freeze"/></path>
<path d="M36.4 35.5C36.9 30.8 38 28.2 40 26.9C43.5 24.4 52 24.4 55.5 27C57.6 28.6 58.9 32 59.4 36" fill="none" stroke="#2b2233" stroke-width="2.5" pathLength="1" stroke-dasharray="1"><animate attributeName="stroke-dashoffset" values="1.01;1.01;0" keyTimes="0;0.667;1" calcMode="spline" keySplines="0 0 1 1;.4 0 .2 1" dur="0.48s" begin="0s" fill="freeze"/></path>
<path d="M43 56L43 63.2M52 56L52 63.2" fill="none" stroke="#2b2233" stroke-width="2.5" pathLength="1" stroke-dasharray="1"><animate attributeName="stroke-dashoffset" values="1.01;1.01;0" keyTimes="0;0.769;1" calcMode="spline" keySplines="0 0 1 1;.4 0 .2 1" dur="0.52s" begin="0s" fill="freeze"/></path>
<path d="M40.5 63C43.5 66.3 51.5 66.3 54.5 63" fill="none" stroke="#2b2233" stroke-width="2.5" pathLength="1" stroke-dasharray="1"><animate attributeName="stroke-dashoffset" values="1.01;1.01;0" keyTimes="0;0.759;1" calcMode="spline" keySplines="0 0 1 1;.4 0 .2 1" dur="0.58s" begin="0s" fill="freeze"/></path>
<path d="M38.5 69.5C33 71 27.5 74.5 24.5 79C22.6 82 22.2 84.5 22.2 86.5" fill="none" stroke="#2b2233" stroke-width="3.5" pathLength="1" stroke-dasharray="1"><animate attributeName="stroke-dashoffset" values="1.01;1.01;0" keyTimes="0;0.714;1" calcMode="spline" keySplines="0 0 1 1;.4 0 .2 1" dur="0.7s" begin="0s" fill="freeze"/></path>
<path d="M56.5 69.5C62 71 67.5 74.5 70.5 79C72.4 82 72.8 84.5 72.8 86.5" fill="none" stroke="#2b2233" stroke-width="3.5" pathLength="1" stroke-dasharray="1"><animate attributeName="stroke-dashoffset" values="1.01;1.01;0" keyTimes="0;0.73;1" calcMode="spline" keySplines="0 0 1 1;.4 0 .2 1" dur="0.74s" begin="0s" fill="freeze"/></path>
<path d="M28 77L31.5 74.5L29.5 79L33 77.5M62 74.5L65.5 77L62 78L66.5 80" fill="none" stroke="#4f3568" stroke-width="2.5" pathLength="1" stroke-dasharray="1"><animate attributeName="stroke-dashoffset" values="1.01;1.01;0" keyTimes="0;0.795;1" calcMode="spline" keySplines="0 0 1 1;.4 0 .2 1" dur="0.82s" begin="0s" fill="freeze"/></path>
<path d="M74.8 41L74.8 46L69 61L83 61L77.2 46L77.2 41M73.5 41L78.5 41" fill="none" stroke="#2b2233" stroke-width="2.5" pathLength="1" stroke-dasharray="1"><animate attributeName="stroke-dashoffset" values="1.01;1.01;0" keyTimes="0;0.725;1" calcMode="spline" keySplines="0 0 1 1;.4 0 .2 1" dur="0.8s" begin="0s" fill="freeze"/></path>
<path d="M37.7 43a5 5 0 1 0 10 0a5 5 0 1 0-10 0ZM47.9 43a5 5 0 1 0 10 0a5 5 0 1 0-10 0ZM47.7 43L48.1 43M37.7 43L33.8 41.3M57.9 43L61.8 41.3" fill="none" stroke="#2b2233" stroke-width="2.5" pathLength="1" stroke-dasharray="1"><animate attributeName="stroke-dashoffset" values="1.01;1.01;0" keyTimes="0;0.66;1" calcMode="spline" keySplines="0 0 1 1;.4 0 .2 1" dur="0.86s" begin="0s" fill="freeze"/></path>
<path d="M85 47L88.5 45M84.5 53L88 53M79.5 38L80.5 35" fill="none" stroke="#7ce577" stroke-width="2.5" pathLength="1" stroke-dasharray="1"><animate attributeName="stroke-dashoffset" values="1.01;1.01;0" keyTimes="0;0.78;1" calcMode="spline" keySplines="0 0 1 1;.4 0 .2 1" dur="1s" begin="0s" fill="freeze"/></path>
</svg>
