<svg xmlns="http://www.w3.org/2000/svg" viewBox="0 0 100 100" aria-hidden="true" stroke-linecap="round" stroke-linejoin="round">
<path d="M23.5 39a24 27 0 1 0 48 0a24 27 0 1 0-48 0Z" fill="rgba(143,181,200,0.22)"><animate attributeName="opacity" values="0;0;1" keyTimes="0;0.759;1" dur="1.08s" begin="0s" fill="freeze"/></path>
<path d="M38.5 69.5C33 71 27.5 74.5 24.5 79C22.6 82 22.2 84.5 22.2 86.5C28.5 91.5 38 93.6 47.5 93.6C57 93.6 66 91.5 72.8 86.5C72.8 84.5 72.4 82 70.5 79C67.5 74.5 62 71 56.5 69.5C51.5 72.8 43.5 72.8 38.5 69.5Z" fill="#8fb5c8"><animate attributeName="opacity" values="0;0;1" keyTimes="0;0.674;1" dur="0.86s" begin="0s" fill="freeze"/></path>
<path d="M24.5 79C29 74 34 71 39.5 69.6C41.5 73 40.5 78 37 81.5C33 85 27.5 85 24 82.5Z" fill="#79a3ba"><animate attributeName="opacity" values="0;0;1" keyTimes="0;0.72;1" dur="0.8s" begin="0s" fill="freeze"/></path>
<path d="M43 57L43 66C45.5 68 49.5 68 52 66L52 57C49.5 60 45.5 60 43 57Z" fill="#e9e4da"><animate attributeName="opacity" values="0;0;1" keyTimes="0;0.633;1" dur="0.6s" begin="0s" fill="freeze"/></path>
<path d="M43 57.5C45.5 60 49.5 60 52 57.5L52 61C49.5 63 45.5 63 43 61Z" fill="#d3ccbf"><animate attributeName="opacity" values="0;0;1" keyTimes="0;0.714;1" dur="0.7s" begin="0s" fill="freeze"/></path>
<path d="M29.5 42C27.5 31 30.5 19.5 40 13C44 10.2 51 10.2 55 13C64.5 19.5 67.5 31 65.5 42C64.5 53 57.5 61 47.5 62C37.5 61 30.5 53 29.5 42Z" fill="#e9e4da"><animate attributeName="opacity" values="0;0;1" keyTimes="0;0.548;1" dur="0.62s" begin="0s" fill="freeze"/></path>
<path d="M37.5 40a3.2 2.4 0 1 0 6.4 0a3.2 2.4 0 1 0-6.4 0ZM51 40a3.2 2.4 0 1 0 6.4 0a3.2 2.4 0 1 0-6.4 0Z" fill="#2b2233"><animate attributeName="opacity" values="0;0;1" keyTimes="0;0.571;1" dur="0.42s" begin="0s" fill="freeze"/></path>
<path d="M39.4 38.8a0.9 0.9 0 1 0 1.8 0a0.9 0.9 0 1 0-1.8 0ZM52.9 38.8a0.9 0.9 0 1 0 1.8 0a0.9 0.9 0 1 0-1.8 0Z" fill="#f4e9d8"><animate attributeName="opacity" values="0;0;1" keyTimes="0;0.68;1" dur="0.72s" begin="0s" fill="freeze"/></path>
<path d="M25 21.5L25.7 23.3L27.5 24L25.7 24.7L25 26.5L24.3 24.7L22.5 24L24.3 23.3ZM70 19.5L70.7 21.3L72.5 22L70.7 22.7L70 24.5L69.3 22.7L67.5 22L69.3 21.3ZM72.5 45L73.2 46.8L75 47.5L73.2 48.2L72.5 50L71.8 48.2L70 47.5L71.8 46.8ZM24 49L24.7 50.8L26.5 51.5L24.7 52.2L24 54L23.3 52.2L21.5 51.5L23.3 50.8Z" fill="#f4e9d8"><animate attributeName="opacity" values="0;0;1" keyTimes="0;0.82;1" dur="0.96s" begin="0s" fill="freeze"/></path>
<path d="M29.5 42C30.5 53 37.5 61 47.5 62C57.5 61 64.5 53 65.5 42" fill="none" stroke="#2b2233" stroke-width="3.5" pathLength="1" stroke-dasharray="1"><animate attributeName="stroke-dashoffset" values="1.01;0" keyTimes="0;1" calcMode="spline" keySplines=".4 0 .2 1" dur="0.24s" begin="0s" fill="freeze"/></path>
<path d="M47.5 44.5L46.8 48.2C47.2 48.8 48.3 48.8 48.7 48.2" fill="none" stroke="#2b2233" stroke-width="2.5" pathLength="1" stroke-dasharray="1"><animate attributeName="stroke-dashoffset" values="1.01;1.01;0" keyTimes="0;0.529;1" calcMode="spline" keySplines="0 0 1 1;.4 0 .2 1" dur="0.34s" begin="0s" fill="freeze"/></path>
<path d="M45.8 53C47 53.6 48.5 53.6 49.7 53" fill="none" stroke="#2b2233" stroke-width="2.5" pathLength="1" stroke-dasharray="1"><animate attributeName="stroke-dashoffset" values="1.01;1.01;0" keyTimes="0;0.6;1" calcMode="spline" keySplines="0 0 1 1;.4 0 .2 1" dur="0.44s" begin="0s" fill="freeze"/></path>
<path d="M29.5 42C27.5 31 30.5 19.5 40 13C44 10.2 51 10.2 55 13C64.5 19.5 67.5 31 65.5 42" fill="none" stroke="#2b2233" stroke-width="3.5" pathLength="1" stroke-dasharray="1"><animate attributeName="stroke-dashoffset" values="1.01;1.01;0" keyTimes="0;0.238;1" calcMode="spline" keySplines="0 0 1 1;.4 0 .2 1" dur="0.42s" begin="0s" fill="freeze"/></path>
<path d="M43 58L43 65M52 58L52 65" fill="none" stroke="#2b2233" stroke-width="2.5" pathLength="1" stroke-dasharray="1"><animate attributeName="stroke-dashoffset" values="1.01;1.01;0" keyTimes="0;0.769;1" calcMode="spline" keySplines="0 0 1 1;.4 0 .2 1" dur="0.52s" begin="0s" fill="freeze"/></path>
<path d="M30 72C36 68 44 68 50 71" fill="none" stroke="#2b2233" stroke-width="2.5" pathLength="1" stroke-dasharray="1"><animate attributeName="stroke-dashoffset" values="1.01;1.01;0" keyTimes="0;0.72;1" calcMode="spline" keySplines="0 0 1 1;.4 0 .2 1" dur="0.5s" begin="0s" fill="freeze"/></path>
<path d="M38.5 69.5C43.5 72.8 51.5 72.8 56.5 69.5" fill="none" stroke="#2b2233" stroke-width="2.5" pathLength="1" stroke-dasharray="1"><animate attributeName="stroke-dashoffset" values="1.01;1.01;0" keyTimes="0;0.774;1" calcMode="spline" keySplines="0 0 1 1;.4 0 .2 1" dur="0.62s" begin="0s" fill="freeze"/></path>
<path d="M38.5 69.5C33 71 27.5 74.5 24.5 79C22.6 82 22.2 84.5 22.2 86.5" fill="none" stroke="#2b2233" stroke-width="3.5" pathLength="1" stroke-dasharray="1"><animate attributeName="stroke-dashoffset" values="1.01;1.01;0" keyTimes="0;0.714;1" calcMode="spline" keySplines="0 0 1 1;.4 0 .2 1" dur="0.7s" begin="0s" fill="freeze"/></path>
<path d="M56.5 69.5C62 71 67.5 74.5 70.5 79C72.4 82 72.8 84.5 72.8 86.5" fill="none" stroke="#2b2233" stroke-width="3.5" pathLength="1" stroke-dasharray="1"><animate attributeName="stroke-dashoffset" values="1.01;1.01;0" keyTimes="0;0.73;1" calcMode="spline" keySplines="0 0 1 1;.4 0 .2 1" dur="0.74s" begin="0s" fill="freeze"/></path>
<path d="M70 30L73 28M26 34L23 33M68 52L71 53" fill="none" stroke="#8fb5c8" stroke-width="2.5" pathLength="1" stroke-dasharray="1"><animate attributeName="stroke-dashoffset" values="1.01;1.01;0" keyTimes="0;0.78;1" calcMode="spline" keySplines="0 0 1 1;.4 0 .2 1" dur="1s" begin="0s" fill="freeze"/></path>
</svg>
