<svg xmlns="http://www.w3.org/2000/svg" viewBox="0 0 100 100" aria-hidden="true" stroke-linecap="round" stroke-linejoin="round">
<path d="M38.5 69.5C33 71 27.5 74.5 24.5 79C22.6 82 22.2 84.5 22.2 86.5C28.5 91.5 38 93.6 47.5 93.6C57 93.6 66 91.5 72.8 86.5C72.8 84.5 72.4 82 70.5 79C67.5 74.5 62 71 56.5 69.5C51.5 72.8 43.5 72.8 38.5 69.5Z" fill="#2c3e6b"><animate attributeName="opacity" values="0;0;1" keyTimes="0;0.674;1" dur="0.86s" begin="0s" fill="freeze"/></path>
<path d="M24.5 84C26 79 30 74 37 71.5C37.5 75 37.5 80 38.5 84C33 85 28 85 24.5 84ZM70.5 84C69 79 65 74 58 71.5C57.5 75 57.5 80 56.5 84C62 85 67 85 70.5 84Z" fill="#e0b32a"><animate attributeName="opacity" values="0;0;1" keyTimes="0;0.694;1" dur="0.72s" begin="0s" fill="freeze"/></path>
<path d="M43 54.5L43 64C45.5 66 49.5 66 52 64L52 54.5C49.5 57.5 45.5 57.5 43 54.5Z" fill="#eec49c"><animate attributeName="opacity" values="0;0;1" keyTimes="0;0.633;1" dur="0.6s" begin="0s" fill="freeze"/></path>
<path d="M43 55C45.5 57.8 49.5 57.8 52 55L52 58.5C49.5 60.8 45.5 60.8 43 58.5Z" fill="#dfa878"><animate attributeName="opacity" values="0;0;1" keyTimes="0;0.714;1" dur="0.7s" begin="0s" fill="freeze"/></path>
<path d="M35.2 34C35.2 26.8 40.6 23.6 47.5 23.6C54.4 23.6 60 27 60 34.2C60 43.5 58 50.8 54.2 54.8C50.4 58.8 44.6 58.7 40.9 54.6C37.2 50.4 35.2 43 35.2 34Z" fill="#eec49c"><animate attributeName="opacity" values="0;0;1" keyTimes="0;0.548;1" dur="0.62s" begin="0s" fill="freeze"/></path>
<path d="M42 55C44.5 58 50.5 58 53 55C51 57.5 44 57.5 42 55Z" fill="rgba(160,104,64,0.25)"><animate attributeName="opacity" values="0;0;1" keyTimes="0;0.7;1" dur="0.7s" begin="0s" fill="freeze"/></path>
<path d="M34 42C33 47 33 53 36 57.5C38.5 55 40 50 40 45L38 42C36.5 41.5 35 41.5 34 42ZM61 42C62 47 62 53 59 57.5C56.5 55 55 50 55 45L57 42C58.5 41.5 60 41.5 61 42Z" fill="#2c3e6b"><animate attributeName="opacity" values="0;0;1" keyTimes="0;0.6;1" dur="0.66s" begin="0s" fill="freeze"/></path>
<path d="M34 42C32.5 36 33 22 35.5 16C38 11 43 9.5 47.5 9.5C52 9.5 57 11 59.5 16C62 22 62.5 36 61 42C54 44 41 44 34 42Z" fill="#e0b32a"><animate attributeName="opacity" values="0;0;1" keyTimes="0;0.517;1" dur="0.58s" begin="0s" fill="freeze"/></path>
<path d="M34.5 34C34 28 34 21 35 16C32 13.5 29 12 25.5 11C27 19 31 29 34.5 34ZM60.5 34C61 28 61 21 60 16C63 13.5 66 12 69.5 11C68 19 64 29 60.5 34Z" fill="#2b2233"><animate attributeName="opacity" values="0;0;1" keyTimes="0;0.5;1" dur="0.56s" begin="0s" fill="freeze"/></path>
<path d="M37.5 43.3C39.5 42.8 43 43.8 45.5 45.3C43.5 46.5 40.5 46.3 38.5 45.5C37.8 45 37.4 44.1 37.5 43.3ZM57.5 43.3C55.5 42.8 52 43.8 49.5 45.3C51.5 46.5 54.5 46.3 56.5 45.5C57.2 45 57.6 44.1 57.5 43.3Z" fill="#f4e9d8"><animate attributeName="opacity" values="0;0;1" keyTimes="0;0.633;1" dur="0.5s" begin="0s" fill="freeze"/></path>
<path d="M39.5 53C41.5 57 44.5 59 47.5 59C50.5 59 53.5 57 55.5 53" fill="none" stroke="#2b2233" stroke-width="3.5" pathLength="1" stroke-dasharray="1"><animate attributeName="stroke-dashoffset" values="1.01;0" keyTimes="0;1" calcMode="spline" keySplines=".4 0 .2 1" dur="0.24s" begin="0s" fill="freeze"/></path>
<path d="M34 42C32.5 36 33 22 35.5 16C38 11 43 9.5 47.5 9.5C52 9.5 57 11 59.5 16C62 22 62.5 36 61 42" fill="none" stroke="#2b2233" stroke-width="3.5" pathLength="1" stroke-dasharray="1"><animate attributeName="stroke-dashoffset" values="1.01;1.01;0" keyTimes="0;0.238;1" calcMode="spline" keySplines="0 0 1 1;.4 0 .2 1" dur="0.42s" begin="0s" fill="freeze"/></path>
<path d="M34 42C41 44 54 44 61 42" fill="none" stroke="#2b2233" stroke-width="2.5" pathLength="1" stroke-dasharray="1"><animate attributeName="stroke-dashoffset" values="1.01;1.01;0" keyTimes="0;0.6;1" calcMode="spline" keySplines="0 0 1 1;.4 0 .2 1" dur="0.46s" begin="0s" fill="freeze"/></path>
<path d="M37.5 43.3C39.5 42.8 43 43.8 45.5 45.3C43.5 46.5 40.5 46.3 38.5 45.5C37.8 45 37.4 44.1 37.5 43.3ZM57.5 43.3C55.5 42.8 52 43.8 49.5 45.3C51.5 46.5 54.5 46.3 56.5 45.5C57.2 45 57.6 44.1 57.5 43.3Z" fill="none" stroke="#2b2233" stroke-width="2.5" pathLength="1" stroke-dasharray="1"><animate attributeName="stroke-dashoffset" values="1.01;1.01;0" keyTimes="0;0.5;1" calcMode="spline" keySplines="0 0 1 1;.4 0 .2 1" dur="0.42s" begin="0s" fill="freeze"/></path>
<path d="M47.5 47L46.5 50.5C47 51 48 51 48.5 50.5" fill="none" stroke="#2b2233" stroke-width="2.5" pathLength="1" stroke-dasharray="1"><animate attributeName="stroke-dashoffset" values="1.01;1.01;0" keyTimes="0;0.529;1" calcMode="spline" keySplines="0 0 1 1;.4 0 .2 1" dur="0.34s" begin="0s" fill="freeze"/></path>
<path d="M42.5 54C45 53.4 50 53.4 52.5 54" fill="none" stroke="#2b2233" stroke-width="2.5" pathLength="1" stroke-dasharray="1"><animate attributeName="stroke-dashoffset" values="1.01;1.01;0" keyTimes="0;0.759;1" calcMode="spline" keySplines="0 0 1 1;.4 0 .2 1" dur="0.58s" begin="0s" fill="freeze"/></path>
<path d="M43 56L43 63.2M52 56L52 63.2" fill="none" stroke="#2b2233" stroke-width="2.5" pathLength="1" stroke-dasharray="1"><animate attributeName="stroke-dashoffset" values="1.01;1.01;0" keyTimes="0;0.769;1" calcMode="spline" keySplines="0 0 1 1;.4 0 .2 1" dur="0.52s" begin="0s" fill="freeze"/></path>
<path d="M38.5 69.5C33 71 27.5 74.5 24.5 79C22.6 82 22.2 84.5 22.2 86.5" fill="none" stroke="#2b2233" stroke-width="3.5" pathLength="1" stroke-dasharray="1"><animate attributeName="stroke-dashoffset" values="1.01;1.01;0" keyTimes="0;0.714;1" calcMode="spline" keySplines="0 0 1 1;.4 0 .2 1" dur="0.7s" begin="0s" fill="freeze"/></path>
<path d="M56.5 69.5C62 71 67.5 74.5 70.5 79C72.4 82 72.8 84.5 72.8 86.5" fill="none" stroke="#2b2233" stroke-width="3.5" pathLength="1" stroke-dasharray="1"><animate attributeName="stroke-dashoffset" values="1.01;1.01;0" keyTimes="0;0.73;1" calcMode="spline" keySplines="0 0 1 1;.4 0 .2 1" dur="0.74s" begin="0s" fill="freeze"/></path>
<path d="M67 56.8L79 44.8M70 58.8L83 47.8M73 60.8L86 51.8" fill="none" stroke="#2b2233" stroke-width="2.5" pathLength="1" stroke-dasharray="1"><animate attributeName="stroke-dashoffset" values="1.01;1.01;0" keyTimes="0;0.77;1" calcMode="spline" keySplines="0 0 1 1;.4 0 .2 1" dur="0.98s" begin="0s" fill="freeze"/></path>
<path d="M66 56L78 44M69 58L82 47M72 60L85 51" fill="none" stroke="#9aa0a8" stroke-width="2.5" pathLength="1" stroke-dasharray="1"><animate attributeName="stroke-dashoffset" values="1.01;1.01;0" keyTimes="0;0.78;1" calcMode="spline" keySplines="0 0 1 1;.4 0 .2 1" dur="1s" begin="0s" fill="freeze"/></path>
</svg>
