<svg xmlns="http://www.w3.org/2000/svg" viewBox="0 0 100 100" aria-hidden="true" stroke-linecap="round" stroke-linejoin="round">
<path d="M38.5 69.5C33 71 27.5 74.5 24.5 79C22.6 82 22.2 84.5 22.2 86.5C28.5 91.5 38 93.6 47.5 93.6C57 93.6 66 91.5 72.8 86.5C72.8 84.5 72.4 82 70.5 79C67.5 74.5 62 71 56.5 69.5C51.5 72.8 43.5 72.8 38.5 69.5Z" fill="#2c3e6b"><animate attributeName="opacity" values="0;0;1" keyTimes="0;0.674;1" dur="0.86s" begin="0s" fill="freeze"/></path>
<path d="M43 54.5L43 64C45.5 66 49.5 66 52 64L52 54.5C49.5 57.5 45.5 57.5 43 54.5Z" fill="#eec49c"><animate attributeName="opacity" values="0;0;1" keyTimes="0;0.633;1" dur="0.6s" begin="0s" fill="freeze"/></path>
<path d="M43 55C45.5 57.8 49.5 57.8 52 55L52 58.5C49.5 60.8 45.5 60.8 43 58.5Z" fill="#dfa878"><animate attributeName="opacity" values="0;0;1" keyTimes="0;0.714;1" dur="0.7s" begin="0s" fill="freeze"/></path>
<path d="M32.5 44C31 35 31.5 25 35.5 19C39.5 13.5 44 12 47.5 12C51 12 55.5 13.5 59.5 19C63.5 25 64 35 62.5 44C62 51 59.5 56 56 59C52 62 43 62 39 59C35.5 56 33 51 32.5 44Z" fill="#2c3e6b"><animate attributeName="opacity" values="0;0;1" keyTimes="0;0.517;1" dur="0.58s" begin="0s" fill="freeze"/></path>
<path d="M36.5 39C36 45 37.5 52 41 56C44 59 51 59 54 56C57.5 52 59 45 58.5 39C54 41 41 41 36.5 39Z" fill="#eec49c"><animate attributeName="opacity" values="0;0;1" keyTimes="0;0.548;1" dur="0.62s" begin="0s" fill="freeze"/></path>
<path d="M43.9 52.1C45.3 51.2 46.9 51.4 47.6 52C48.3 51.4 49.9 51.2 51.3 52.1C50 53.7 45.3 53.7 43.9 52.1Z" fill="#b56a68"><animate attributeName="opacity" values="0;0;1" keyTimes="0;0.652;1" dur="0.46s" begin="0s" fill="freeze"/></path>
<path d="M40.9 42.6a1.8 1.5 0 1 0 3.6 0a1.8 1.5 0 1 0-3.6 0ZM51.1 42.6a1.8 1.5 0 1 0 3.6 0a1.8 1.5 0 1 0-3.6 0Z" fill="#2b2233"><animate attributeName="opacity" values="0;0;1" keyTimes="0;0.571;1" dur="0.42s" begin="0s" fill="freeze"/></path>
<path d="M37 38.5L27.5 35.5L32 38.5L27.5 41L33 41.5L29 43.5L37 43Z" fill="#f4e9d8"><animate attributeName="opacity" values="0;0;1" keyTimes="0;0.72;1" dur="0.76s" begin="0s" fill="freeze"/></path>
<path d="M58 38.5L67.5 35.5L63 38.5L67.5 41L62 41.5L66 43.5L58 43Z" fill="#f4e9d8"><animate attributeName="opacity" values="0;0;1" keyTimes="0;0.73;1" dur="0.78s" begin="0s" fill="freeze"/></path>
<path d="M66 45a11 11 0 1 0 22 0a11 11 0 1 0-22 0Z" fill="#c9403a"><animate attributeName="opacity" values="0;0;1" keyTimes="0;0.75;1" dur="0.9s" begin="0s" fill="freeze"/></path>
<path d="M68.5 45a8.5 8.5 0 1 0 17 0a8.5 8.5 0 1 0-17 0Z" fill="#f4e9d8"><animate attributeName="opacity" values="0;0;1" keyTimes="0;0.77;1" dur="0.92s" begin="0s" fill="freeze"/></path>
<path d="M71 45a6 6 0 1 0 12 0a6 6 0 1 0-12 0Z" fill="#c9403a"><animate attributeName="opacity" values="0;0;1" keyTimes="0;0.79;1" dur="0.94s" begin="0s" fill="freeze"/></path>
<path d="M73.2 45a3.8 3.8 0 1 0 7.6 0a3.8 3.8 0 1 0-7.6 0Z" fill="#2c3e6b"><animate attributeName="opacity" values="0;0;1" keyTimes="0;0.81;1" dur="0.96s" begin="0s" fill="freeze"/></path>
<path d="M77 41.7L77.8 43.9L80.1 44L78.3 45.4L79 47.7L77 46.4L75 47.7L75.7 45.4L73.9 44L76.2 43.9Z" fill="#f4e9d8"><animate attributeName="opacity" values="0;0;1" keyTimes="0;0.85;1" dur="1s" begin="0s" fill="freeze"/></path>
<path d="M36.5 39C36 45 37.5 52 41 56C44 59 51 59 54 56C57.5 52 59 45 58.5 39" fill="none" stroke="#2b2233" stroke-width="3.5" pathLength="1" stroke-dasharray="1"><animate attributeName="stroke-dashoffset" values="1.01;0" keyTimes="0;1" calcMode="spline" keySplines=".4 0 .2 1" dur="0.24s" begin="0s" fill="freeze"/></path>
<path d="M40.4 40.2C41.8 39.7 43.6 39.7 44.9 40.2" fill="none" stroke="#2b2233" stroke-width="2.5" pathLength="1" stroke-dasharray="1"><animate attributeName="stroke-dashoffset" values="1.01;1.01;0" keyTimes="0;0.467;1" calcMode="spline" keySplines="0 0 1 1;.4 0 .2 1" dur="0.3s" begin="0s" fill="freeze"/></path>
<path d="M50.1 40.2C51.4 39.7 53.2 39.7 54.6 40.2" fill="none" stroke="#2b2233" stroke-width="2.5" pathLength="1" stroke-dasharray="1"><animate attributeName="stroke-dashoffset" values="1.01;1.01;0" keyTimes="0;0.5;1" calcMode="spline" keySplines="0 0 1 1;.4 0 .2 1" dur="0.32s" begin="0s" fill="freeze"/></path>
<path d="M47.4 43C47.2 45.4 46.9 47.2 46.3 48.4C47 49.1 48.2 49.1 48.9 48.5" fill="none" stroke="#2b2233" stroke-width="2.5" pathLength="1" stroke-dasharray="1"><animate attributeName="stroke-dashoffset" values="1.01;1.01;0" keyTimes="0;0.529;1" calcMode="spline" keySplines="0 0 1 1;.4 0 .2 1" dur="0.34s" begin="0s" fill="freeze"/></path>
<path d="M32.5 44C31 35 31.5 25 35.5 19C39.5 13.5 44 12 47.5 12C51 12 55.5 13.5 59.5 19C63.5 25 64 35 62.5 44" fill="none" stroke="#2b2233" stroke-width="3.5" pathLength="1" stroke-dasharray="1"><animate attributeName="stroke-dashoffset" values="1.01;1.01;0" keyTimes="0;0.238;1" calcMode="spline" keySplines="0 0 1 1;.4 0 .2 1" dur="0.42s" begin="0s" fill="freeze"/></path>
<path d="M36.5 39C41 41 54 41 58.5 39" fill="none" stroke="#2b2233" stroke-width="2.5" pathLength="1" stroke-dasharray="1"><animate attributeName="stroke-dashoffset" values="1.01;1.01;0" keyTimes="0;0.667;1" calcMode="spline" keySplines="0 0 1 1;.4 0 .2 1" dur="0.48s" begin="0s" fill="freeze"/></path>
<path d="M44.5 52.5C46.5 53.3 48.5 53.3 50.5 52.5" fill="none" stroke="#2b2233" stroke-width="2.5" pathLength="1" stroke-dasharray="1"><animate attributeName="stroke-dashoffset" values="1.01;1.01;0" keyTimes="0;0.72;1" calcMode="spline" keySplines="0 0 1 1;.4 0 .2 1" dur="0.5s" begin="0s" fill="freeze"/></path>
<path d="M38.5 69.5C43.5 72.8 51.5 72.8 56.5 69.5" fill="none" stroke="#2b2233" stroke-width="2.5" pathLength="1" stroke-dasharray="1"><animate attributeName="stroke-dashoffset" values="1.01;1.01;0" keyTimes="0;0.774;1" calcMode="spline" keySplines="0 0 1 1;.4 0 .2 1" dur="0.62s" begin="0s" fill="freeze"/></path>
<path d="M38.5 69.5C33 71 27.5 74.5 24.5 79C22.6 82 22.2 84.5 22.2 86.5" fill="none" stroke="#2b2233" stroke-width="3.5" pathLength="1" stroke-dasharray="1"><animate attributeName="stroke-dashoffset" values="1.01;1.01;0" keyTimes="0;0.714;1" calcMode="spline" keySplines="0 0 1 1;.4 0 .2 1" dur="0.7s" begin="0s" fill="freeze"/></path>
<path d="M56.5 69.5C62 71 67.5 74.5 70.5 79C72.4 82 72.8 84.5 72.8 86.5" fill="none" stroke="#2b2233" stroke-width="3.5" pathLength="1" stroke-dasharray="1"><animate attributeName="stroke-dashoffset" values="1.01;1.01;0" keyTimes="0;0.73;1" calcMode="spline" keySplines="0 0 1 1;.4 0 .2 1" dur="0.74s" begin="0s" fill="freeze"/></path>
<path d="M35 72L57 89" fill="none" stroke="#c9403a" stroke-width="3.5" pathLength="1" stroke-dasharray="1"><animate attributeName="stroke-dashoffset" values="1.01;1.01;0" keyTimes="0;0.7;1" calcMode="spline" keySplines="0 0 1 1;.4 0 .2 1" dur="0.78s" begin="0s" fill="freeze"/></path>
<path d="M39.5 71L61.5 88" fill="none" stroke="#f4e9d8" stroke-width="2.5" pathLength="1" stroke-dasharray="1"><animate attributeName="stroke-dashoffset" values="1.01;1.01;0" keyTimes="0;0.76;1" calcMode="spline" keySplines="0 0 1 1;.4 0 .2 1" dur="0.82s" begin="0s" fill="freeze"/></path>
<path d="M66 45a11 11 0 1 0 22 0a11 11 0 1 0-22 0Z" fill="none" stroke="#2b2233" stroke-width="2.5" pathLength="1" stroke-dasharray="1"><animate attributeName="stroke-dashoffset" values="1.01;1.01;0" keyTimes="0;0.725;1" calcMode="spline" keySplines="0 0 1 1;.4 0 .2 1" dur="0.8s" begin="0s" fill="freeze"/></path>
<path d="M70 40C72 37.5 75.5 36.5 78.5 37.5" fill="none" stroke="#f4e9d8" stroke-width="2.5" pathLength="1" stroke-dasharray="1"><animate attributeName="stroke-dashoffset" values="1.01;1.01;0" keyTimes="0;0.78;1" calcMode="spline" keySplines="0 0 1 1;.4 0 .2 1" dur="1s" begin="0s" fill="freeze"/></path>
</svg>
