<svg xmlns="http://www.w3.org/2000/svg" viewBox="0 0 100 100" aria-hidden="true" stroke-linecap="round" stroke-linejoin="round">
<path d="M38.5 69.5C33 71 27.5 74.5 24.5 79C22.6 82 22.2 84.5 22.2 86.5C28.5 91.5 38 93.6 47.5 93.6C57 93.6 66 91.5 72.8 86.5C72.8 84.5 72.4 82 70.5 79C67.5 74.5 62 71 56.5 69.5C51.5 72.8 43.5 72.8 38.5 69.5Z" fill="#3b5ba5"><animate attributeName="opacity" values="0;0;1" keyTimes="0;0.674;1" dur="0.86s" begin="0s" fill="freeze"/></path>
<path d="M43 55C45.5 57.5 49.5 57.5 52 55L52 66C49.5 68 45.5 68 43 66Z" fill="#c9403a"><animate attributeName="opacity" values="0;0;1" keyTimes="0;0.633;1" dur="0.6s" begin="0s" fill="freeze"/></path>
<path d="M39 67C43 70 52 70 56 67C59 72 60 81 59 90C53 91.5 42 91.5 36 90C35 81 36 72 39 67Z" fill="#c9403a"><animate attributeName="opacity" values="0;0;1" keyTimes="0;0.694;1" dur="0.72s" begin="0s" fill="freeze"/></path>
<path d="M35.2 34C35.2 26.8 40.6 23.6 47.5 23.6C54.4 23.6 60 27 60 34.2C60 43.5 58 50.8 54.2 54.8C50.4 58.8 44.6 58.7 40.9 54.6C37.2 50.4 35.2 43 35.2 34Z" fill="#c9403a"><animate attributeName="opacity" values="0;0;1" keyTimes="0;0.548;1" dur="0.62s" begin="0s" fill="freeze"/></path>
<path d="M35.4 33C34 26 34.5 18 37.5 14C40.5 10 44.5 9.5 49.5 9.5C54.5 9.5 58.5 10 61.5 14C64.5 18 65 26 59.6 33.5Z" fill="#c9403a"><animate attributeName="opacity" values="0;0;1" keyTimes="0;0.517;1" dur="0.58s" begin="0s" fill="freeze"/></path>
<path d="M46 50C43.5 49 39 48.5 36 46C33.5 44 33.8 40.3 37 39.8C40.2 39.3 43.8 41.3 45.4 44C46.5 46 46.7 48 46 50ZM49 50C51.5 49 56 48.5 59 46C61.5 44 61.2 40.3 58 39.8C54.8 39.3 51.2 41.3 49.6 44C48.5 46 48.3 48 49 50Z" fill="#f4e9d8"><animate attributeName="opacity" values="0;0;1" keyTimes="0;0.633;1" dur="0.6s" begin="0s" fill="freeze"/></path>
<path d="M46.3 75a1.3 1.3 0 1 0 2.4 0a1.3 1.3 0 1 0-2.4 0ZM45.3 78.5a2.2 2.6 0 1 0 4.4 0a2.2 2.6 0 1 0-4.4 0Z" fill="#2b2233"><animate attributeName="opacity" values="0;0;1" keyTimes="0;0.79;1" dur="0.82s" begin="0s" fill="freeze"/></path>
<path d="M70.2 53a2.7 2.7 0 1 0 5.4 0a2.7 2.7 0 1 0-5.4 0Z" fill="#2b2233"><animate attributeName="opacity" values="0;0;1" keyTimes="0;0.85;1" dur="1s" begin="0s" fill="freeze"/></path>
<path d="M35.4 33C34.8 40.5 36.2 48.8 40.9 54.6C44.4 58.6 50.4 58.7 54.2 54.8C58.4 50 59.8 41 59.6 33.5" fill="none" stroke="#2b2233" stroke-width="3.5" pathLength="1" stroke-dasharray="1"><animate attributeName="stroke-dashoffset" values="1.01;0" keyTimes="0;1" calcMode="spline" keySplines=".4 0 .2 1" dur="0.24s" begin="0s" fill="freeze"/></path>
<path d="M35.4 33C34 26 34.5 18 37.5 14C40.5 10 44.5 9.5 49.5 9.5C54.5 9.5 58.5 10 61.5 14C64.5 18 65 26 59.6 33.5" fill="none" stroke="#2b2233" stroke-width="3.5" pathLength="1" stroke-dasharray="1"><animate attributeName="stroke-dashoffset" values="1.01;1.01;0" keyTimes="0;0.238;1" calcMode="spline" keySplines="0 0 1 1;.4 0 .2 1" dur="0.42s" begin="0s" fill="freeze"/></path>
<path d="M46 50C43.5 49 39 48.5 36 46C33.5 44 33.8 40.3 37 39.8C40.2 39.3 43.8 41.3 45.4 44C46.5 46 46.7 48 46 50ZM49 50C51.5 49 56 48.5 59 46C61.5 44 61.2 40.3 58 39.8C54.8 39.3 51.2 41.3 49.6 44C48.5 46 48.3 48 49 50Z" fill="none" stroke="#2b2233" stroke-width="2.5" pathLength="1" stroke-dasharray="1"><animate attributeName="stroke-dashoffset" values="1.01;1.01;0" keyTimes="0;0.5;1" calcMode="spline" keySplines="0 0 1 1;.4 0 .2 1" dur="0.42s" begin="0s" fill="freeze"/></path>
<path d="M47 26C43 26 39 28 36 31M47 31C44 31 40.5 33 38 35.5M48 26C52 26 56 28 59 31M48 31C51 31 54.5 33 57 35.5" fill="none" stroke="#2b2233" stroke-width="2.5" pathLength="1" stroke-dasharray="1"><animate attributeName="stroke-dashoffset" values="1.01;1.01;0" keyTimes="0;0.72;1" calcMode="spline" keySplines="0 0 1 1;.4 0 .2 1" dur="0.72s" begin="0s" fill="freeze"/></path>
<path d="M38.5 69.5C33 71 27.5 74.5 24.5 79C22.6 82 22.2 84.5 22.2 86.5" fill="none" stroke="#2b2233" stroke-width="3.5" pathLength="1" stroke-dasharray="1"><animate attributeName="stroke-dashoffset" values="1.01;1.01;0" keyTimes="0;0.714;1" calcMode="spline" keySplines="0 0 1 1;.4 0 .2 1" dur="0.7s" begin="0s" fill="freeze"/></path>
<path d="M56.5 69.5C62 71 67.5 74.5 70.5 79C72.4 82 72.8 84.5 72.8 86.5" fill="none" stroke="#2b2233" stroke-width="3.5" pathLength="1" stroke-dasharray="1"><animate attributeName="stroke-dashoffset" values="1.01;1.01;0" keyTimes="0;0.73;1" calcMode="spline" keySplines="0 0 1 1;.4 0 .2 1" dur="0.74s" begin="0s" fill="freeze"/></path>
<path d="M46 76.5C43.5 75.5 41 75 39 75.5M46 78C43 77.5 40.5 78 38.5 78.5M46 79.5C43.5 79.5 41.5 80.5 40 82M49 76.5C51.5 75.5 54 75 56 75.5M49 78C52 77.5 54.5 78 56.5 78.5M49 79.5C51.5 79.5 53.5 80.5 55 82" fill="none" stroke="#2b2233" stroke-width="2.5" pathLength="1" stroke-dasharray="1"><animate attributeName="stroke-dashoffset" values="1.01;1.01;0" keyTimes="0;0.795;1" calcMode="spline" keySplines="0 0 1 1;.4 0 .2 1" dur="0.82s" begin="0s" fill="freeze"/></path>
<path d="M76 22C79 32 77.5 44 72.9 52.5" fill="none" stroke="#2b2233" stroke-width="2.5" pathLength="1" stroke-dasharray="1"><animate attributeName="stroke-dashoffset" values="1.01;1.01;0" keyTimes="0;0.78;1" calcMode="spline" keySplines="0 0 1 1;.4 0 .2 1" dur="1s" begin="0s" fill="freeze"/></path>
<path d="M70.5 51.5C69 50.5 68.5 49.5 68 48.3M75.4 51.5C76.9 50.5 77.4 49.5 77.9 48.3M70.5 54.7C69 55.7 68.5 56.7 68 57.9M75.4 54.7C76.9 55.7 77.4 56.7 77.9 57.9" fill="none" stroke="#2b2233" stroke-width="2.5" pathLength="1" stroke-dasharray="1"><animate attributeName="stroke-dashoffset" values="1.01;1.01;0" keyTimes="0;0.8;1" calcMode="spline" keySplines="0 0 1 1;.4 0 .2 1" dur="0.84s" begin="0s" fill="freeze"/></path>
</svg>
