<svg xmlns="http://www.w3.org/2000/svg" viewBox="0 0 100 100" aria-hidden="true" stroke-linecap="round" stroke-linejoin="round">
<path d="M38.5 69.5C33 71 27.5 74.5 24.5 79C22.6 82 22.2 84.5 22.2 86.5C28.5 91.5 38 93.6 47.5 93.6C57 93.6 66 91.5 72.8 86.5C72.8 84.5 72.4 82 70.5 79C67.5 74.5 62 71 56.5 69.5C51.5 72.8 43.5 72.8 38.5 69.5Z" fill="#2b2b33"><animate attributeName="opacity" values="0;0;1" keyTimes="0;0.674;1" dur="0.86s" begin="0s" fill="freeze"/></path>
<path d="M42 58.5L42 71L53 71L53 58.5C50.5 61.5 44.5 61.5 42 58.5Z" fill="#2b2b33"><animate attributeName="opacity" values="0;0;1" keyTimes="0;0.633;1" dur="0.6s" begin="0s" fill="freeze"/></path>
<path d="M34 42C34 25 40 17 47.5 17C55 17 61 25 61 42C61 52 58 58 53 61.5C50 63.5 45 63.5 42 61.5C37 58 34 52 34 42Z" fill="#8a8f98"><animate attributeName="opacity" values="0;0;1" keyTimes="0;0.548;1" dur="0.62s" begin="0s" fill="freeze"/></path>
<path d="M40 18C35 19 32.5 26 33 36L36 36C36 28 38 22 42 19ZM55 18C60 19 62.5 26 62 36L59 36C59 28 57 22 53 19Z" fill="#c9403a"><animate attributeName="opacity" values="0;0;1" keyTimes="0;0.6;1" dur="0.68s" begin="0s" fill="freeze"/></path>
<path d="M37 40a5 5 0 1 0 10 0a5 5 0 1 0-10 0ZM48 40a5 5 0 1 0 10 0a5 5 0 1 0-10 0Z" fill="#c9403a"><animate attributeName="opacity" values="0;0;1" keyTimes="0;0.66;1" dur="0.74s" begin="0s" fill="freeze"/></path>
<path d="M39.3 38a1 1 0 1 0 2 0a1 1 0 1 0-2 0ZM50.3 38a1 1 0 1 0 2 0a1 1 0 1 0-2 0Z" fill="#f4e9d8"><animate attributeName="opacity" values="0;0;1" keyTimes="0;0.78;1" dur="0.9s" begin="0s" fill="freeze"/></path>
<path d="M44 50L51 50C52.5 50 52.5 56 51 56L44 56C42.5 56 42.5 50 44 50Z" fill="#9aa0a8"><animate attributeName="opacity" values="0;0;1" keyTimes="0;0.7;1" dur="0.8s" begin="0s" fill="freeze"/></path>
<path d="M34 42C34 25 40 17 47.5 17C55 17 61 25 61 42C61 52 58 58 53 61.5C50 63.5 45 63.5 42 61.5C37 58 34 52 34 42Z" fill="none" stroke="#2b2233" stroke-width="3.5" pathLength="1" stroke-dasharray="1"><animate attributeName="stroke-dashoffset" values="1.01;0" keyTimes="0;1" calcMode="spline" keySplines=".4 0 .2 1" dur="0.24s" begin="0s" fill="freeze"/></path>
<path d="M43 18.5L40 12.5M52 18.5L55 12.5" fill="none" stroke="#2b2233" stroke-width="2.5" pathLength="1" stroke-dasharray="1"><animate attributeName="stroke-dashoffset" values="1.01;1.01;0" keyTimes="0;0.2;1" calcMode="spline" keySplines="0 0 1 1;.4 0 .2 1" dur="0.42s" begin="0s" fill="freeze"/></path>
<path d="M37 40a5 5 0 1 0 10 0a5 5 0 1 0-10 0ZM48 40a5 5 0 1 0 10 0a5 5 0 1 0-10 0Z" fill="none" stroke="#2b2233" stroke-width="2.5" pathLength="1" stroke-dasharray="1"><animate attributeName="stroke-dashoffset" values="1.01;1.01;0" keyTimes="0;0.45;1" calcMode="spline" keySplines="0 0 1 1;.4 0 .2 1" dur="0.5s" begin="0s" fill="freeze"/></path>
<path d="M46 51.5L46 54.5M49 51.5L49 54.5" fill="none" stroke="#2b2233" stroke-width="2.5" pathLength="1" stroke-dasharray="1"><animate attributeName="stroke-dashoffset" values="1.01;1.01;0" keyTimes="0;0.55;1" calcMode="spline" keySplines="0 0 1 1;.4 0 .2 1" dur="0.56s" begin="0s" fill="freeze"/></path>
<path d="M39.5 12.5a1.6 1.6 0 1 0 3.2 0a1.6 1.6 0 1 0-3.2 0ZM53.3 12.5a1.6 1.6 0 1 0 3.2 0a1.6 1.6 0 1 0-3.2 0Z" fill="#8a8f98"><animate attributeName="opacity" values="0;0;1" keyTimes="0;0.72;1" dur="0.8s" begin="0s" fill="freeze"/></path>
<path d="M38.5 69.5C33 71 27.5 74.5 24.5 79C22.6 82 22.2 84.5 22.2 86.5M56.5 69.5C62 71 67.5 74.5 70.5 79C72.4 82 72.8 84.5 72.8 86.5" fill="none" stroke="#2b2233" stroke-width="3.5" pathLength="1" stroke-dasharray="1"><animate attributeName="stroke-dashoffset" values="1.01;1.01;0" keyTimes="0;0.73;1" calcMode="spline" keySplines="0 0 1 1;.4 0 .2 1" dur="0.74s" begin="0s" fill="freeze"/></path>
<path d="M37 80.5L58 80.5M40 86L55 86" fill="none" stroke="#c9403a" stroke-width="2.5" pathLength="1" stroke-dasharray="1"><animate attributeName="stroke-dashoffset" values="1.01;1.01;0" keyTimes="0;0.78;1" calcMode="spline" keySplines="0 0 1 1;.4 0 .2 1" dur="0.94s" begin="0s" fill="freeze"/></path>
</svg>
