<?xml version="1.0" standalone="no"?><!DOCTYPE svg PUBLIC "-//W3C//DTD SVG 1.1//EN" "http://www.w3.org/Graphics/SVG/1.1/DTD/svg11.dtd"><svg t="1773543096585" class="icon" viewBox="0 0 1024 1024" version="1.1" xmlns="http://www.w3.org/2000/svg" p-id="77751" xmlns:xlink="http://www.w3.org/1999/xlink" width="200" height="200"><path d="M288.581818 111.709091h55.854546v55.854545H288.581818V111.709091zM176.872727 595.781818h167.563637v55.854546H176.872727v-55.854546zM623.709091 502.690909h111.709091v55.854546h-111.709091v-55.854546zM679.563636 558.545455h111.709091v55.854545h-111.709091v-55.854545zM679.563636 614.4h167.563637v37.236364h-167.563637v-37.236364z" fill="#B8332B" p-id="77752"></path><path d="M176.872727 651.636364h167.563637v74.472727H176.872727v-74.472727zM176.872727 726.109091h111.709091v74.472727H176.872727v-74.472727zM735.418182 726.109091h111.709091v74.472727h-111.709091v-74.472727zM679.563636 651.636364h167.563637v74.472727h-167.563637v-74.472727zM363.054545 558.545455h55.854546v55.854545h-55.854546v-55.854545zM567.854545 558.545455h55.854546v55.854545h-55.854546v-55.854545z" fill="#FFF1E3" p-id="77753"></path><path d="M791.272727 595.781818h55.854546v18.618182h-55.854546v-18.618182zM735.418182 539.927273h37.236363v18.618182h-37.236363v-18.618182zM418.909091 446.836364h204.8v111.709091H418.909091v-111.709091zM232.727273 558.545455h111.709091v37.236363H232.727273v-37.236363zM344.436364 446.836364h18.618181v37.236363h-18.618181v-37.236363zM307.2 484.072727h55.854545v18.618182h-55.854545v-18.618182zM288.581818 502.690909h74.472727v37.236364H288.581818v-37.236364zM251.345455 539.927273h111.70909v18.618182H251.345455v-18.618182zM623.709091 111.709091h18.618182v55.854545h-18.618182V111.709091zM642.327273 148.945455h148.945454v18.618181h-148.945454V148.945455zM344.436364 93.090909h279.272727v74.472727H344.436364V93.090909z" fill="#B8332B" p-id="77754"></path><path d="M344.436364 55.854545h279.272727v37.236364H344.436364V55.854545zM642.327273 111.709091h148.945454v37.236364h-148.945454V111.709091zM288.581818 446.836364h55.854546v37.236363H288.581818v-37.236363zM735.418182 502.690909h55.854545v37.236364h-55.854545v-37.236364zM791.272727 558.545455h55.854546v37.236363h-55.854546v-37.236363zM288.581818 484.072727h18.618182v18.618182H288.581818v-18.618182zM772.654545 539.927273h18.618182v18.618182h-18.618182v-18.618182zM232.727273 539.927273h18.618182v18.618182H232.727273v-18.618182zM232.727273 502.690909h55.854545v37.236364H232.727273v-37.236364zM176.872727 558.545455h55.854546v37.236363H176.872727v-37.236363z" fill="#FF655B" p-id="77755"></path><path d="M288.581818 167.563636h55.854546v55.854546H288.581818V167.563636zM288.581818 335.127273h55.854546v55.854545H288.581818v-55.854545z" fill="#432E23" p-id="77756"></path><path d="M269.963636 856.436364h148.945455v55.854545H269.963636v-55.854545zM269.963636 912.290909h148.945455v55.854546H269.963636v-55.854546z" fill="#9F5A31" p-id="77757"></path><path d="M176.872727 912.290909h93.090909v37.236364H176.872727v-37.236364zM754.036364 912.290909h93.090909v37.236364h-93.090909v-37.236364z" fill="#F38C50" p-id="77758"></path><path d="M176.872727 949.527273h93.090909v18.618182H176.872727v-18.618182zM754.036364 949.527273h93.090909v18.618182h-93.090909v-18.618182zM605.090909 856.436364h148.945455v55.854545h-148.945455v-55.854545zM605.090909 912.290909h148.945455v55.854546h-148.945455v-55.854546z" fill="#9F5A31" p-id="77759"></path><path d="M363.054545 446.836364h55.854546v111.709091h-55.854546v-111.709091zM363.054545 614.4h316.509091v37.236364H363.054545v-37.236364zM344.436364 651.636364h335.127272v74.472727H344.436364v-74.472727zM288.581818 726.109091h446.836364v74.472727H288.581818v-74.472727zM418.909091 595.781818h148.945454v18.618182h-148.945454v-18.618182zM288.581818 800.581818h167.563637v55.854546H288.581818v-55.854546zM567.854545 800.581818h167.563637v55.854546h-167.563637v-55.854546zM623.709091 558.545455h55.854545v55.854545h-55.854545v-55.854545z" fill="#2E67B1" p-id="77760"></path><path d="M418.909091 558.545455h148.945454v37.236363h-148.945454v-37.236363z" fill="#66A8FF" p-id="77761"></path><path d="M344.436364 558.545455h18.618181v93.090909h-18.618181v-93.090909z" fill="#2E67B1" p-id="77762"></path><path d="M400.290909 279.272727h55.854546v55.854546h-55.854546v-55.854546zM400.290909 167.563636h55.854546v55.854546h-55.854546V167.563636zM344.436364 167.563636h55.854545v167.563637h-55.854545V167.563636zM623.709091 279.272727h55.854545v55.854546h-55.854545v-55.854546zM567.854545 223.418182h55.854546v55.854545h-55.854546v-55.854545zM567.854545 335.127273h223.418182v55.854545H567.854545v-55.854545z" fill="#432E23" p-id="77763"></path><path d="M288.581818 223.418182h55.854546v111.709091H288.581818v-111.709091zM456.145455 167.563636h223.418181v55.854546H456.145455V167.563636zM400.290909 223.418182h167.563636v55.854545h-167.563636v-55.854545zM456.145455 279.272727h167.563636v55.854546h-167.563636v-55.854546zM344.436364 335.127273h223.418181v55.854545H344.436364v-55.854545zM344.436364 390.981818h390.981818v55.854546H344.436364v-55.854546zM623.709091 223.418182h167.563636v55.854545h-167.563636v-55.854545zM679.563636 279.272727h167.563637v55.854546h-167.563637v-55.854546z" fill="#FFF1E3" p-id="77764"></path><path d="M232.727273 223.418182h55.854545v167.563636H232.727273v-167.563636z" fill="#432E23" p-id="77765"></path><path d="M232.727273 111.709091h55.854545v111.709091H232.727273V111.709091zM176.872727 223.418182h55.854546v167.563636H176.872727v-167.563636zM232.727273 390.981818h111.709091v55.854546H232.727273v-55.854546zM176.872727 800.581818h111.709091v55.854546H176.872727v-55.854546zM456.145455 800.581818h111.70909v55.854546h-111.70909v-55.854546zM176.872727 856.436364h93.090909v55.854545H176.872727v-55.854545zM121.018182 912.290909h55.854545v111.709091H121.018182v-111.709091zM847.127273 912.290909h55.854545v111.709091h-55.854545v-111.709091zM176.872727 968.145455h223.418182v55.854545H176.872727v-55.854545zM623.709091 968.145455h223.418182v55.854545H623.709091v-55.854545zM735.418182 800.581818h111.709091v55.854546h-111.709091v-55.854546zM754.036364 856.436364h93.090909v55.854545h-93.090909v-55.854545zM288.581818 55.854545h55.854546v55.854546H288.581818V55.854545zM232.727273 446.836364h55.854545v55.854545H232.727273v-55.854545zM176.872727 502.690909h55.854546v55.854546H176.872727v-55.854546zM791.272727 502.690909h55.854546v55.854546h-55.854546v-55.854546zM121.018182 558.545455h55.854545v242.036363H121.018182V558.545455zM418.909091 856.436364h55.854545v111.709091h-55.854545v-111.709091zM549.236364 856.436364h55.854545v111.709091h-55.854545v-111.709091zM847.127273 558.545455h55.854545v242.036363h-55.854545V558.545455zM791.272727 111.709091h55.854546v55.854545h-55.854546V111.709091zM791.272727 223.418182h55.854546v55.854545h-55.854546v-55.854545zM847.127273 279.272727h55.854545v55.854546h-55.854545v-55.854546zM791.272727 335.127273h55.854546v55.854545h-55.854546v-55.854545zM735.418182 390.981818h55.854545v55.854546h-55.854545v-55.854546zM623.709091 446.836364h167.563636v55.854545h-167.563636v-55.854545zM623.709091 55.854545h167.563636v55.854546h-167.563636V55.854545zM679.563636 167.563636h111.709091v55.854546h-111.709091V167.563636zM344.436364 0h279.272727v55.854545H344.436364V0z" fill="#10001D" p-id="77766"></path></svg>