<?xml version="1.0" encoding="UTF-8"?>
<svg t="1771495640319" class="icon" viewBox="0 0 1024 1024" version="1.1" xmlns="http://www.w3.org/2000/svg" p-id="5634" width="200" height="200"><path d="M537.782857 57.161143c16.749714 29.44 33.426286 58.953143 50.102857 88.502857a7.68 7.68 0 0 0 6.692572 3.913143h236.873143c7.424 0 13.750857 4.681143 19.017142 13.933714l62.061715 109.677714c8.082286 14.372571 10.24 20.370286 1.024 35.693715a2262.893714 2262.893714 0 0 0-32.438857 55.478857l-15.652572 28.086857c-4.534857 8.338286-9.508571 11.922286-1.718857 21.833143l113.152 197.851428c7.314286 12.8 4.754286 21.065143-1.828571 32.841143-18.651429 33.499429-37.632 66.742857-56.978286 99.84-6.765714 11.593143-14.994286 16.018286-29.001143 15.798857a1833.398857 1833.398857 0 0 0-99.291429 0.658286 4.242286 4.242286 0 0 0-3.437714 2.157714 24571.830857 24571.830857 0 0 1-115.419428 202.24c-7.204571 12.507429-16.201143 15.469714-30.939429 15.506286-42.532571 0.146286-85.430857 0.182857-128.731429 0.109714a22.930286 22.930286 0 0 1-19.821714-11.556571l-56.978286-99.108571a3.84 3.84 0 0 0-3.547428-2.121143h-218.331429a76.288 76.288 0 0 1-34.377143-3.913143l-68.388571-118.198857a23.149714 23.149714 0 0 1-0.073143-23.04l51.492572-90.441143a8.448 8.448 0 0 0 0-8.411429 23594.496 23594.496 0 0 1-80.018286-139.593143L47.542857 425.325714c-6.838857-13.202286-7.387429-21.138286 4.022857-41.179428 19.858286-34.669714 39.570286-69.302857 59.209143-103.936 5.632-9.984 12.946286-14.262857 24.905143-14.262857 36.827429-0.182857 73.654857-0.182857 110.445714-0.073143 1.901714 0 3.657143-1.024 4.571429-2.669715l119.734857-208.859428a20.845714 20.845714 0 0 1 17.993143-10.496c22.381714-0.036571 44.946286 0 67.547428-0.256l43.410286-0.987429c14.555429-0.109714 30.866286 1.389714 38.4 14.518857z m-146.432 17.188571a2.56 2.56 0 0 0-2.194286 1.28l-122.331428 213.942857a6.692571 6.692571 0 0 1-5.741714 3.364572H138.788571c-2.377143 0-2.962286 1.060571-1.755428 3.145143l247.917714 433.334857c1.060571 1.792 0.548571 2.633143-1.462857 2.669714l-119.222857 0.658286a9.289143 9.289143 0 0 0-8.557714 4.937143l-56.32 98.56c-1.865143 3.328-0.914286 5.046857 2.925714 5.046857l243.858286 0.365714c1.974857 0 3.401143 0.841143 4.425142 2.56l59.867429 104.704c1.974857 3.474286 3.913143 3.510857 5.924571 0l213.577143-373.76 33.426286-58.953143a2.340571 2.340571 0 0 1 4.096 0l60.745143 107.958857a5.193143 5.193143 0 0 0 4.571428 2.633143l117.906286-0.841143a1.718857 1.718857 0 0 0 1.462857-2.56l-123.721143-217.014857a4.608 4.608 0 0 1 0-4.827428l12.507429-21.613715 47.798857-84.370285c1.024-1.755429 0.512-2.633143-1.499428-2.633143H392.521143c-2.486857 0-3.108571-1.097143-1.828572-3.291429l61.184-106.861714a4.571429 4.571429 0 0 0 0-4.864l-58.258285-102.253714a2.56 2.56 0 0 0-2.267429-1.316572z m268.361143 342.198857c1.974857 0 2.486857 0.841143 1.462857 2.56l-35.474286 62.500572-111.542857 195.620571a2.377143 2.377143 0 0 1-2.121143 1.243429 2.486857 2.486857 0 0 1-2.121142-1.243429l-147.346286-257.353143c-0.841143-1.462857-0.402286-2.230857 1.206857-2.304l9.216-0.512 286.793143-0.512h-0.073143z" fill="#7D5DED" p-id="5635"></path></svg>
